<?xml version="1.0" encoding="utf-8"?>
<!-- Generator: Adobe Illustrator 16.0.0, SVG Export Plug-In . SVG Version: 6.00 Build 0)  -->
<!DOCTYPE svg PUBLIC "-//W3C//DTD SVG 1.1//EN" "http://www.w3.org/Graphics/SVG/1.1/DTD/svg11.dtd">
<svg version="1.1" id="Layer_2" xmlns="http://www.w3.org/2000/svg" xmlns:xlink="http://www.w3.org/1999/xlink" x="0px" y="0px"
	 width="1024px" height="1094.02px" viewBox="0 0 1024 1094.02" style="enable-background:new 0 0 1024 1094.02;"
	 xml:space="preserve">
<style type="text/css">
<![CDATA[
	.st0{fill:#111423;}
	.st1{fill:#E0ECDE;}
	.st2{fill:#E3E3E3;}
	.st3{fill:#E8EDEF;}
	.st4{fill:#B7C8CE;}
	.st5{fill:#1D1F25;}
	.st6{fill:#BDBDBD;}
	.st7{fill:#F9D05D;}
	.st8{fill:#F9D98A;}
	.st9{clip-path:url(#SVGID_2_);}
	.st10{fill:#FCB70B;}
	.st11{fill:#FCBC2B;}
	.st12{fill:#FFFF00;}
	.st13{fill:#FFFFFF;}
	.st14{clip-path:url(#SVGID_2_);fill:#FFD300;}
	.st15{fill:#002C4C;}
	.st16{fill:#00335C;}
	.st17{fill:#0071D7;}
	.st18{fill:#D9E1E4;}
]]>
</style>
<rect x="0.38" y="-0.17" class="st17" width="1024" height="1025.31"/>
<rect x="0.38" y="1025" class="st5" width="1024" height="70"/>
<g>
	<g>
		<g>
			<path class="st1" d="M278.49,1044.44h5.2c4.09,0,7.46,1.08,10.11,3.2c2.67,2.14,4,5.19,4,9.15c0,4.08-1.32,7.2-3.96,9.36
				c-2.65,2.17-6.06,3.24-10.24,3.24h-5.1V1044.44z M281.63,1066.56h1.1c1.62,0,3.16-0.16,4.6-0.48c1.45-0.33,2.71-0.86,3.79-1.62
				c1.07-0.78,1.94-1.77,2.58-2.99c0.64-1.22,0.97-2.74,0.97-4.55c0-1.79-0.32-3.32-0.95-4.59c-0.63-1.28-1.51-2.26-2.66-2.97
				c-1.13-0.72-2.38-1.25-3.75-1.58c-1.37-0.35-2.9-0.5-4.59-0.5h-1.1V1066.56z"/>
			<path class="st1" d="M302.41,1062.16c0.04,1.38,0.49,2.59,1.33,3.61c0.87,1.02,1.99,1.51,3.36,1.51c1.09,0,1.98-0.25,2.69-0.75
				c0.7-0.51,1.36-1.25,1.98-2.26l2.54,1.43c-0.73,1.32-1.75,2.35-3.03,3.12c-1.28,0.74-2.68,1.11-4.21,1.11
				c-2.34,0-4.2-0.76-5.6-2.31c-1.38-1.59-2.07-3.51-2.07-5.83c0-2.43,0.66-4.45,1.98-6.01c1.29-1.56,3.17-2.31,5.64-2.31
				c2.41,0,4.21,0.75,5.44,2.31c1.24,1.54,1.87,3.52,1.87,5.93v0.46H302.41z M311.31,1059.91c-0.19-1.2-0.63-2.15-1.39-2.83
				c-0.75-0.7-1.72-1.05-2.92-1.05c-0.57,0-1.12,0.08-1.62,0.27c-0.5,0.2-0.94,0.48-1.33,0.82c-0.38,0.36-0.71,0.77-0.98,1.25
				c-0.25,0.49-0.42,0.99-0.5,1.55H311.31z"/>
			<path class="st1" d="M323.15,1057.46c-0.45-0.92-1.11-1.37-2-1.37c-0.42,0-0.8,0.15-1.13,0.45c-0.34,0.3-0.5,0.67-0.5,1.08
				c0,0.4,0.13,0.75,0.38,1.02c0.25,0.28,0.6,0.53,1.05,0.78c0.29,0.13,0.51,0.25,0.67,0.3c0.15,0.09,0.4,0.21,0.77,0.37
				c0.17,0.07,0.33,0.16,0.46,0.2c0.13,0.04,0.23,0.08,0.3,0.13c1.1,0.51,1.99,1.09,2.64,1.76c0.64,0.65,0.97,1.55,0.97,2.64
				c0,1.46-0.54,2.69-1.6,3.67c-1.04,0.98-2.31,1.46-3.77,1.46c-0.61,0-1.19-0.08-1.74-0.25c-0.55-0.15-1.07-0.39-1.56-0.69
				c-0.48-0.3-0.89-0.66-1.26-1.09c-0.37-0.44-0.65-0.92-0.85-1.43l2.57-1.15c0.73,1.32,1.68,1.97,2.84,1.97
				c0.47,0,0.9-0.12,1.29-0.38c0.41-0.25,0.71-0.57,0.89-0.95c0.19-0.4,0.23-0.81,0.12-1.28c-0.11-0.43-0.45-0.87-1.03-1.27
				l-2.95-1.55c-0.5-0.26-0.95-0.53-1.33-0.8c-0.38-0.27-0.69-0.55-0.93-0.84c-0.25-0.3-0.43-0.63-0.56-0.98
				c-0.12-0.38-0.18-0.79-0.18-1.28c0-1.26,0.44-2.32,1.34-3.19c0.89-0.88,1.97-1.31,3.26-1.31c1.96,0,3.38,0.88,4.27,2.71
				L323.15,1057.46z"/>
			<path class="st1" d="M333.92,1046.83c0,0.55-0.2,1.03-0.6,1.42c-0.4,0.4-0.89,0.6-1.46,0.6c-0.58,0-1.07-0.19-1.47-0.6
				c-0.4-0.39-0.6-0.87-0.6-1.42c0-0.58,0.2-1.07,0.6-1.48c0.4-0.41,0.89-0.6,1.47-0.6c0.57,0,1.06,0.19,1.46,0.6
				C333.72,1045.76,333.92,1046.24,333.92,1046.83z M333.36,1069.4h-3.01v-15.49h3.01V1069.4z"/>
			<path class="st1" d="M352.76,1069.12c0,2.9-0.55,5.17-1.67,6.79c-1.12,1.58-3.1,2.37-5.94,2.37c-2.2,0-4-0.63-5.4-1.88
				c-1.38-1.25-2.09-2.96-2.13-5.13h2.99c0,1.39,0.44,2.46,1.28,3.24c0.87,0.75,2,1.13,3.4,1.13c1.71,0,2.88-0.49,3.52-1.5
				c0.63-1,0.94-2.38,0.94-4.2v-2.95h-0.07c-0.62,0.95-1.39,1.67-2.31,2.18c-0.92,0.52-1.92,0.77-2.98,0.77
				c-2.32,0-4.15-0.8-5.48-2.41c-1.33-1.62-1.98-3.59-1.98-5.96c0-2.24,0.67-4.12,2.02-5.69c1.36-1.62,3.13-2.41,5.31-2.41
				c2.28,0,4.11,1.04,5.42,3.08h0.07v-2.63h3V1069.12z M344.87,1067.28c1.57,0,2.8-0.54,3.69-1.61c0.91-1.11,1.37-2.45,1.37-4.01
				c0-1.55-0.46-2.86-1.37-3.95c-0.88-1.07-2.12-1.62-3.69-1.62c-1.5,0-2.7,0.55-3.61,1.67c-0.89,1.08-1.34,2.38-1.34,3.9
				c0,1.56,0.45,2.88,1.34,3.97C342.17,1066.74,343.37,1067.28,344.87,1067.28z"/>
			<path class="st1" d="M359.67,1055.99h0.07c0.43-0.83,1.09-1.44,1.93-1.88c0.85-0.45,1.77-0.65,2.77-0.65
				c1.02,0,1.88,0.14,2.6,0.45c0.7,0.3,1.28,0.74,1.71,1.32c0.44,0.58,0.75,1.27,0.94,2.1c0.19,0.82,0.28,1.78,0.28,2.82v9.24h-3
				v-8.87c0-1.53-0.23-2.64-0.66-3.34c-0.45-0.73-1.37-1.1-2.77-1.1c-0.52,0-0.95,0.05-1.3,0.15c-0.36,0.09-0.67,0.23-0.94,0.42
				c-0.27,0.19-0.49,0.41-0.67,0.65c-0.17,0.25-0.35,0.51-0.5,0.81c-0.07,0.14-0.13,0.35-0.19,0.59c-0.05,0.24-0.1,0.49-0.14,0.73
				c-0.05,0.26-0.09,0.51-0.1,0.77c-0.02,0.26-0.03,0.46-0.03,0.61v1.45v7.12h-3v-15.49h3V1055.99z"/>
			<path class="st1" d="M383.52,1040.67h3v15.82h0.07c1.38-2.03,3.19-3.03,5.44-3.03c2.17,0,3.95,0.8,5.31,2.41
				c1.35,1.56,2.03,3.45,2.03,5.69c0,2.37-0.67,4.34-2,5.96c-1.34,1.61-3.17,2.41-5.47,2.41c-1.06,0-2.06-0.25-2.99-0.77
				c-0.92-0.51-1.69-1.23-2.31-2.18h-0.07v2.42h-3V1040.67z M391.29,1067.28c1.58,0,2.81-0.54,3.7-1.61
				c0.91-1.11,1.36-2.45,1.36-4.01c0-1.55-0.45-2.86-1.36-3.95c-0.89-1.07-2.12-1.62-3.7-1.62c-1.49,0-2.7,0.55-3.61,1.67
				c-0.89,1.08-1.34,2.38-1.34,3.9c0,1.56,0.45,2.88,1.34,3.97C388.59,1066.74,389.8,1067.28,391.29,1067.28z"/>
			<path class="st1" d="M399.78,1053.91h3.5l5.27,9.83l4.91-9.83h3.37l-12.65,24.37h-3.4l6.15-11.53L399.78,1053.91z"/>
			<path class="st1" d="M431.97,1063.13l-2.87,6.26h-3.37l12-26.01l12.01,26.01h-3.37l-2.88-6.26H431.97z M437.73,1050.2
				l-4.47,10.11h8.94L437.73,1050.2z"/>
			<path class="st1" d="M454.64,1069.4h-3v-28.73h3V1069.4z"/>
			<path class="st1" d="M462.04,1069.4h-2.99v-28.73h2.99V1069.4z"/>
			<path class="st1" d="M473.45,1057.56v2.47h-7.29v-2.47H473.45z"/>
			<path class="st1" d="M485.13,1043.68c-0.94-0.43-1.61-0.62-2-0.62c-0.64,0-1.12,0.18-1.4,0.6c-0.29,0.4-0.48,0.9-0.6,1.5
				c-0.06,0.45-0.1,0.79-0.12,1.05c-0.01,0.24-0.02,0.6-0.02,1.03v6.66h4.14v2.78h-4.14v12.71h-2.99v-12.71h-1.37v-2.78h1.37v-7.55
				c0-4.06,1.67-6.09,5.03-6.09c0.74,0,1.43,0.13,2.11,0.4V1043.68z"/>
			<path class="st1" d="M489.76,1056.43h0.09c0.39-0.93,0.94-1.66,1.68-2.18c0.74-0.55,1.6-0.79,2.59-0.79
				c0.83,0,1.65,0.24,2.47,0.75l-1.37,2.72c-0.48-0.42-1.1-0.63-1.83-0.63c-1.53,0-2.56,0.62-3.07,1.84
				c-0.22,0.58-0.38,1.17-0.46,1.72c-0.07,0.55-0.11,1.2-0.11,1.92v7.62h-3v-15.49h3V1056.43z"/>
			<path class="st1" d="M500.07,1062.16c0.05,1.38,0.48,2.59,1.33,3.61c0.88,1.02,1.99,1.51,3.37,1.51c1.09,0,1.99-0.25,2.69-0.75
				c0.7-0.51,1.36-1.25,1.98-2.26l2.53,1.43c-0.73,1.32-1.73,2.35-3.02,3.12c-1.27,0.74-2.68,1.11-4.22,1.11
				c-2.32,0-4.2-0.76-5.6-2.31c-1.37-1.59-2.07-3.51-2.07-5.83c0-2.43,0.65-4.45,1.98-6.01c1.28-1.56,3.16-2.31,5.62-2.31
				c2.42,0,4.23,0.75,5.45,2.31c1.25,1.54,1.86,3.52,1.86,5.93v0.46H500.07z M508.97,1059.91c-0.18-1.2-0.64-2.15-1.39-2.83
				c-0.74-0.7-1.72-1.05-2.92-1.05c-0.57,0-1.12,0.08-1.61,0.27c-0.5,0.2-0.95,0.48-1.34,0.82c-0.39,0.36-0.71,0.77-0.97,1.25
				c-0.24,0.49-0.43,0.99-0.52,1.55H508.97z"/>
			<path class="st1" d="M516.34,1062.16c0.05,1.38,0.5,2.59,1.34,3.61c0.86,1.02,1.98,1.51,3.36,1.51c1.1,0,1.99-0.25,2.69-0.75
				c0.7-0.51,1.37-1.25,1.98-2.26l2.53,1.43c-0.73,1.32-1.73,2.35-3,3.12c-1.28,0.74-2.69,1.11-4.23,1.11c-2.33,0-4.2-0.76-5.6-2.31
				c-1.38-1.59-2.07-3.51-2.07-5.83c0-2.43,0.65-4.45,1.97-6.01c1.29-1.56,3.16-2.31,5.65-2.31c2.39,0,4.21,0.75,5.42,2.31
				c1.25,1.54,1.86,3.52,1.86,5.93v0.46H516.34z M525.25,1059.91c-0.18-1.2-0.65-2.15-1.39-2.83c-0.75-0.7-1.73-1.05-2.91-1.05
				c-0.59,0-1.13,0.08-1.63,0.27c-0.5,0.2-0.95,0.48-1.33,0.82c-0.39,0.36-0.73,0.77-0.97,1.25c-0.26,0.49-0.43,0.99-0.52,1.55
				H525.25z"/>
			<path class="st1" d="M537.95,1057.56v2.47h-7.29v-2.47H537.95z"/>
			<path class="st1" d="M553.52,1066.98h-0.05c-0.63,0.95-1.4,1.67-2.33,2.18c-0.92,0.52-1.92,0.77-2.98,0.77
				c-2.33,0-4.14-0.8-5.47-2.41c-1.34-1.62-2-3.59-2-5.96c0-2.24,0.67-4.12,2.03-5.69c1.36-1.62,3.12-2.41,5.31-2.41
				c2.24,0,4.05,1,5.44,3.03h0.05v-15.82h3v28.73h-3V1066.98z M548.62,1067.28c1.59,0,2.83-0.54,3.71-1.61
				c0.9-1.11,1.37-2.45,1.37-4.01c0-1.55-0.46-2.86-1.37-3.95c-0.88-1.07-2.12-1.62-3.71-1.62c-1.48,0-2.68,0.55-3.59,1.67
				c-0.89,1.08-1.34,2.38-1.34,3.9c0,1.56,0.45,2.88,1.34,3.97C545.94,1066.74,547.14,1067.28,548.62,1067.28z"/>
			<path class="st1" d="M561.42,1055.83c1.62-1.58,3.61-2.37,5.94-2.37c2.33,0,4.31,0.79,5.9,2.37c1.63,1.59,2.44,3.55,2.44,5.87
				s-0.81,4.27-2.44,5.86c-1.58,1.59-3.57,2.37-5.9,2.37c-2.34,0-4.32-0.78-5.94-2.37c-1.59-1.59-2.39-3.54-2.39-5.86
				S559.83,1057.42,561.42,1055.83z M562.02,1061.7c0,1.43,0.53,2.7,1.58,3.81c1.02,1.06,2.28,1.58,3.77,1.58
				c1.45,0,2.72-0.53,3.76-1.58c1.05-1.1,1.58-2.37,1.58-3.81c0-1.46-0.52-2.73-1.58-3.81c-1.04-1.07-2.31-1.59-3.76-1.59
				c-1.49,0-2.75,0.52-3.77,1.59C562.55,1058.97,562.02,1060.24,562.02,1061.7z"/>
			<path class="st1" d="M583.77,1063.78l4.6-10.73l4.57,10.73l4.53-9.86h3.41l-7.94,16.02l-4.57-10.35l-4.6,10.35l-7.93-16.02h3.4
				L583.77,1063.78z"/>
			<path class="st1" d="M605.38,1055.99h0.06c0.44-0.83,1.1-1.44,1.95-1.88c0.83-0.45,1.77-0.65,2.76-0.65
				c1.03,0,1.89,0.14,2.6,0.45c0.71,0.3,1.29,0.74,1.71,1.32c0.46,0.58,0.76,1.27,0.95,2.1c0.19,0.82,0.27,1.78,0.27,2.82v9.24h-3
				v-8.87c0-1.53-0.21-2.64-0.66-3.34c-0.46-0.73-1.37-1.1-2.78-1.1c-0.51,0-0.94,0.05-1.31,0.15c-0.34,0.09-0.66,0.23-0.92,0.42
				c-0.27,0.19-0.5,0.41-0.67,0.65c-0.18,0.25-0.33,0.51-0.5,0.81c-0.05,0.14-0.12,0.35-0.17,0.59c-0.06,0.24-0.1,0.49-0.16,0.73
				c-0.03,0.26-0.07,0.51-0.1,0.77c-0.01,0.26-0.03,0.46-0.03,0.61v1.45v7.12h-3v-15.49h3V1055.99z"/>
			<path class="st1" d="M622.96,1069.4h-3v-28.73h3V1069.4z"/>
			<path class="st1" d="M628.23,1055.83c1.63-1.58,3.61-2.37,5.94-2.37c2.32,0,4.3,0.79,5.9,2.37c1.62,1.59,2.43,3.55,2.43,5.87
				s-0.81,4.27-2.43,5.86c-1.6,1.59-3.58,2.37-5.9,2.37c-2.33,0-4.31-0.78-5.94-2.37c-1.61-1.59-2.4-3.54-2.4-5.86
				S626.62,1057.42,628.23,1055.83z M628.83,1061.7c0,1.43,0.52,2.7,1.57,3.81c1.02,1.06,2.28,1.58,3.77,1.58
				c1.47,0,2.72-0.53,3.76-1.58c1.06-1.1,1.58-2.37,1.58-3.81c0-1.46-0.53-2.73-1.58-3.81c-1.04-1.07-2.28-1.59-3.76-1.59
				c-1.49,0-2.75,0.52-3.77,1.59C629.36,1058.97,628.83,1060.24,628.83,1061.7z"/>
			<path class="st1" d="M659.88,1069.4h-3v-2.42h-0.07c-1.33,1.98-3.1,2.95-5.3,2.95c-2.29,0-4.11-0.8-5.48-2.41
				c-1.33-1.62-1.98-3.59-1.98-5.96c0-2.24,0.68-4.12,2.02-5.69c1.36-1.62,3.14-2.41,5.33-2.41c2.23,0,4.04,1,5.41,3.03h0.07v-2.57
				h3V1069.4z M651.98,1067.28c1.57,0,2.81-0.54,3.71-1.61c0.9-1.11,1.35-2.45,1.35-4.01c0-1.55-0.45-2.86-1.35-3.95
				c-0.9-1.07-2.14-1.62-3.71-1.62c-1.49,0-2.7,0.55-3.6,1.67c-0.89,1.08-1.33,2.38-1.33,3.9c0,1.56,0.44,2.88,1.33,3.97
				C649.28,1066.74,650.49,1067.28,651.98,1067.28z"/>
			<path class="st1" d="M675.42,1066.98h-0.07c-0.62,0.95-1.4,1.67-2.32,2.18c-0.91,0.52-1.91,0.77-2.98,0.77
				c-2.32,0-4.13-0.8-5.47-2.41c-1.34-1.62-1.99-3.59-1.99-5.96c0-2.24,0.67-4.12,2.04-5.69c1.35-1.62,3.11-2.41,5.29-2.41
				c2.25,0,4.06,1,5.44,3.03h0.07v-15.82h3v28.73h-3V1066.98z M670.52,1067.28c1.58,0,2.81-0.54,3.7-1.61
				c0.92-1.11,1.36-2.45,1.36-4.01c0-1.55-0.45-2.86-1.36-3.95c-0.89-1.07-2.12-1.62-3.7-1.62c-1.5,0-2.69,0.55-3.61,1.67
				c-0.88,1.08-1.32,2.38-1.32,3.9c0,1.56,0.44,2.88,1.32,3.97C667.83,1066.74,669.02,1067.28,670.52,1067.28z"/>
			<path class="st1" d="M687.02,1068.02c0,0.53-0.18,0.99-0.56,1.36c-0.38,0.37-0.84,0.55-1.38,0.55c-0.52,0-1-0.19-1.37-0.55
				c-0.37-0.37-0.57-0.83-0.57-1.36c0-0.51,0.2-0.96,0.57-1.35c0.37-0.37,0.85-0.56,1.37-0.56c0.53,0,1,0.19,1.38,0.56
				C686.85,1067.05,687.02,1067.51,687.02,1068.02z"/>
			<path class="st1" d="M703.43,1058.32c-1.24-1.39-2.74-2.1-4.47-2.1c-1.45,0-2.67,0.56-3.69,1.64c-1,1.09-1.5,2.38-1.5,3.8
				c0,1.62,0.5,2.91,1.5,3.93c1.04,1.04,2.33,1.57,3.88,1.57c1.61,0,3.04-0.7,4.28-2.07v3.81c-1.29,0.69-2.72,1.02-4.29,1.02
				c-2.31,0-4.29-0.77-5.94-2.35c-1.63-1.55-2.43-3.47-2.43-5.79c0-2.38,0.81-4.36,2.43-5.96c1.62-1.58,3.65-2.37,6.1-2.37
				c1.61,0,2.99,0.33,4.14,1.02V1058.32z"/>
			<path class="st1" d="M707.67,1055.83c1.62-1.58,3.6-2.37,5.94-2.37c2.34,0,4.31,0.79,5.91,2.37c1.61,1.59,2.42,3.55,2.42,5.87
				s-0.8,4.27-2.42,5.86c-1.6,1.59-3.57,2.37-5.91,2.37c-2.33,0-4.31-0.78-5.94-2.37c-1.6-1.59-2.41-3.54-2.41-5.86
				S706.07,1057.42,707.67,1055.83z M708.27,1061.7c0,1.43,0.5,2.7,1.56,3.81c1.02,1.06,2.28,1.58,3.77,1.58
				c1.46,0,2.73-0.53,3.77-1.58c1.04-1.1,1.56-2.37,1.56-3.81c0-1.46-0.53-2.73-1.56-3.81c-1.04-1.07-2.31-1.59-3.77-1.59
				c-1.5,0-2.75,0.52-3.77,1.59C708.78,1058.97,708.27,1060.24,708.27,1061.7z"/>
			<path class="st1" d="M727.58,1055.87h0.08c0.43-0.72,1.02-1.29,1.78-1.76c0.74-0.43,1.53-0.65,2.35-0.65
				c1.95,0,3.45,0.9,4.5,2.73c0.48-0.83,1.17-1.5,2.02-2c0.84-0.5,1.79-0.73,2.78-0.73c3.46,0,5.17,2.22,5.17,6.68v9.26h-3v-8.77
				c0-0.39-0.02-0.8-0.05-1.18c-0.04-0.38-0.09-0.75-0.19-1.13c-0.09-0.35-0.22-0.68-0.41-1c-0.17-0.3-0.42-0.58-0.72-0.83
				c-0.4-0.26-0.91-0.39-1.53-0.39c-0.63,0-1.16,0.13-1.59,0.39c-0.43,0.25-0.76,0.57-0.99,0.92c-0.25,0.35-0.43,0.84-0.56,1.37
				c-0.12,0.54-0.21,1.05-0.25,1.5c-0.02,0.43-0.05,0.95-0.05,1.51v7.62h-3.01v-8.2c0-0.53,0-0.96-0.03-1.31
				c-0.02-0.37-0.09-0.8-0.2-1.35c-0.11-0.57-0.25-0.98-0.43-1.25c-0.18-0.3-0.45-0.58-0.83-0.83c-0.38-0.24-0.84-0.36-1.37-0.36
				c-1.54,0-2.52,0.67-2.96,1.99c-0.21,0.61-0.34,1.21-0.41,1.74c-0.06,0.56-0.09,1.21-0.09,1.96v7.62h-3v-15.49h3V1055.87z"/>
		</g>
		<g>
			<g>
				<path class="st1" d="M208.54,1060.27c14.16,0,28.32,0,42.48,0c1.29,0,1.29-1.99,0-1.99c-14.16,0-28.32,0-42.48,0
					C207.25,1058.29,207.25,1060.27,208.54,1060.27L208.54,1060.27z"/>
			</g>
			<g>
				<path class="st1" d="M773.74,1060.27c14.15,0,28.31,0,42.47,0c1.3,0,1.3-1.99,0-1.99c-14.15,0-28.32,0-42.47,0
					C772.46,1058.29,772.46,1060.27,773.74,1060.27L773.74,1060.27z"/>
			</g>
		</g>
	</g>
</g>
<g>
	<defs>
		<rect id="SVGID_1_" x="0.38" y="545.14" width="1024" height="480"/>
	</defs>
	<clipPath id="SVGID_2_">
		<use xlink:href="#SVGID_1_"  style="overflow:visible;"/>
	</clipPath>
	<rect x="0.38" y="545.14" class="st14" width="1024" height="480"/>
	<g class="st9">
		<g>
			<g>
				<path class="st13" d="M627.2,911.31c2.51-8.69,5.47-17.27,9.06-25.57c2.75-6.35,6.82-10.9,10.1-16.74
					c7.72-13.76,14.37-26,27.19-35.92c24.19-18.74,57.06-22.74,85.09-10.44c16.29,7.15,28.46,20.62,42.44,31.16
					c2.16,1.63,4.43,3.33,7.11,3.7c1.63,0.22,3.29-0.08,4.9-0.37c6.2-1.14,12.4-2.28,18.6-3.42c3.36-0.61,7.36-0.81,10.39-2.52
					c3.35-1.88,5.35-5.54,7.79-8.37c3.29-3.82,7.07-7.2,11.24-10.03c3.23-2.19,6.76-4.12,9.11-7.23c1.68-2.22,2.63-4.9,3.55-7.53
					c2.09-5.94,4.18-11.89,6.27-17.83c2.38-6.76,4.96-13.84,10.34-18.58c5.68-5.01,14.18-6.58,21.28-3.94
					c1.09,0.4,2.19,0.94,2.86,1.89c0.96,1.37,0.77,3.22,0.5,4.88c-2.51,15.68-7.81,30.72-13.23,45.59
					c-1.78,4.88-3.24,9.88-4.94,14.79c0.27-0.08,0.54-0.17,0.82-0.24c5.5-1.45,10.88-3.35,16.08-5.66c0.5-0.22,1.02-0.46,1.42-0.83
					c0.41-0.38,0.68-0.88,0.95-1.37c4.05-7.46,8.26-14.9,12.67-22.18c4.54-7.49,9.62-14.7,15.57-21.14
					c3.41-3.69,7.37-7.26,12.28-8.32c4.91-1.06,10.89,1.36,12.13,6.23c0.68,2.67-0.13,5.47-0.94,8.11
					c-2.61,8.54-5.37,17.36-11.2,24.13c6.43-2.94,12.89-5.55,19.22-8.65c6.26-3.07,12.91-5.8,19.98-6.01
					c3.31-0.1,6.98,0.55,9.03,3.16c2.34,2.99,1.57,7.54-0.75,10.55c-2.46,3.19-6.4,5.19-9.49,7.69c-4.44,3.58-9.38,6.67-13.97,10.07
					c-9.06,6.69-17.96,13.59-26.7,20.69c-7.69,6.25-15.28,12.68-23.62,18.05c-8.14,5.24-16.1,9.3-25.4,12.38
					c-6.66,2.2-13.5,3.93-19.9,6.79c-9.06,4.06-16.97,10.29-25.7,15.02s-18.99,7.96-28.56,5.32c-1.72-0.48-3.41-1.19-4.76-2.35
					c-6.22,3.01-13.42,5.68-19.58,5.73c-6.13,0.05-12.13-1.68-17.87-3.83c-8.09-3.03-15.85-6.9-23.41-11.07
					c-10.99-6.06-19.73-15.22-32.1-8.52c-9.88,5.35-17.54,15.01-19.81,26.09c-0.31,1.51-0.57,3.13-1.58,4.29
					c-1.36,1.55-3.63,1.83-5.69,1.97c-24.21,1.66-48.69-0.76-72.1-7.12c-2.51-0.68-5.23-1.57-6.63-3.77
					C625.65,917.48,626.37,914.18,627.2,911.31z"/>
				<g>
					<path class="st2" d="M880.04,800.19c-2.09,5.95-4.18,11.89-6.27,17.83c-0.93,2.63-1.87,5.31-3.55,7.53
						c-1.14,1.51-2.57,2.74-4.1,3.86c-14.22,2.47-28.43,4.94-42.65,7.41c7.54,3.54,14.98,7.27,22.4,11.04
						c-1.11,1.3-2.32,2.49-3.8,3.32c-3.04,1.71-7.04,1.91-10.39,2.52c-6.2,1.13-12.4,2.28-18.6,3.42c-1.62,0.3-3.27,0.6-4.9,0.37
						c-2.68-0.37-4.95-2.08-7.11-3.7c-13.98-10.53-26.15-24.01-42.44-31.16c-26.43-11.6-57.15-8.69-80.85,7.39
						c7.01-6.65,15.2-11.78,23.69-17c13.3-8.18,27.38-15.11,41.98-20.64c6.22-2.36,12.67-4.48,19.32-4.58
						c6.32-0.09,12.5,1.66,18.54,3.53c16.42,5.11,34.4,3.79,51.58,3.82c16.4,0.03,32.8-0.34,49.2-0.5
						C881.36,796.48,880.69,798.35,880.04,800.19z"/>
					<path class="st2" d="M907.38,821.48c-0.94,0.48-1.94,0.9-2.96,1.26c2.8-7.87,5.42-15.81,7.52-23.89
						c1.12,0.63,2.2,1.35,3.22,2.18c1.61,1.31,3.08,2.94,3.58,4.95C920.32,812.35,912.44,818.88,907.38,821.48z"/>
					<path class="st2" d="M904.94,891.46c9.3-3.07,17.26-7.13,25.4-12.38c8.34-5.37,15.93-11.8,23.62-18.05
						c8.74-7.1,17.64-14,26.7-20.69c4.27-3.15,8.82-6.06,13.01-9.33c4.13,0.82,8.05,2.7,10.82,5.83c1.88,2.12,3.18,5.29,1.78,7.75
						c-0.46,0.81-1.16,1.44-1.86,2.06c-5.65,4.99-12.11,7.84-18.78,11.33c-7.48,3.91-15.19,7.36-22.93,10.72
						c-9.38,4.08-18.83,8.04-28.03,12.55c-4.6,2.26-9.07,4.72-13.53,7.24c-3.54,2-7.63,2.37-11.62,3.15
						c-2.9,0.57-5.84,0.91-8.79,1.14C902.14,892.35,903.55,891.92,904.94,891.46z"/>
				</g>
				<path class="st6" d="M844.54,906.44c7.41-5.32,14.65-11.36,22.44-16.1c6.47-3.94,11.16-10.51,15.81-16.46
					c2.46-3.14,4.74-6.19,6.59-9.74c2.59-4.96,5.04-9.99,7.35-15.08c0.54-1.18,1.06-2.58,0.45-3.73c0.42,0.79-2.42,3.83-2.82,4.45
					c-1.62,2.49-3.04,5.12-4.65,7.62c-6.75,10.48-13.47,20.93-23.4,28.67c-13.31,10.38-26.71,20.82-41.16,29.62
					c0.94-0.57,3.9-0.18,5.15-0.5c1.85-0.47,3.39-1.28,5-2.25C838.53,910.97,841.47,908.65,844.54,906.44z"/>
				<path class="st6" d="M928.39,880.53c4.25-2.71,7.16-7.05,9.85-11.31c4.33-6.85,8.54-13.79,12.08-21.08
					c3.58-7.37,5.66-15.1,8.31-22.76c0.21-0.6,0.37-1.36-0.08-1.82c-0.34-0.35-0.91-0.37-1.35-0.17c-0.44,0.2-0.77,0.58-1.06,0.96
					c-1.67,2.18-2.01,4.69-3.01,7.13c-1.1,2.66-1.72,5.49-2.78,8.17c-1.91,4.84-3.9,9.64-6.07,14.37c-2.17,4.7-4.51,9.31-7.14,13.77
					c-1.31,2.22-2.69,4.4-4.14,6.53C931.81,876.06,930.19,879.38,928.39,880.53z"/>
				<path class="st6" d="M898.24,864.1c-3.64,3.47-8.27,5.58-12.66,7.9c-2.01,1.06-3.97,2.22-5.96,3.31
					c-1.78,0.98-2.56,2.6-4.15,3.75c5.23-3.76,11.59-5.49,17.53-7.99c3.05-1.28,6.07-2.82,8.38-5.18c4.4-4.51,7.16-11.24,9.89-16.82
					c1.55-3.17,2.94-6.49,3.32-10c-2.04,0.82-3.17,4.08-4.13,5.88c-1.2,2.25-2.34,4.54-3.54,6.79
					C904.56,856.18,901.93,860.59,898.24,864.1z"/>
				<path class="st6" d="M814.73,875.19c-0.44,1.51-1.54,2.84-3.07,3.9c13.88-2.64,23.1-14.54,30.54-25.57
					c0.47-0.7,0.96-1.45,0.98-2.29c-5.06,5.55-10.59,10.67-16.51,15.29c-2.49,1.95-6.09,4.88-9.4,2.98
					c-1.11-0.64-1.93-1.68-2.74-2.68c-2.04-2.49-4.27-4.83-6.66-6.98c-0.63-0.56-1.34-1.14-2.18-1.19c3.4,3.7,6.29,7.88,8.56,12.38
					C814.98,872.5,815.09,873.91,814.73,875.19z"/>
			</g>
			<path class="st13" d="M714.13,921.23c0,0-21.1,97.18-18.1,112.18s-53,32-87,19s19.29-144.83,19.29-144.83L714.13,921.23z"/>
		</g>
		<g>
			<g>
				<path class="st13" d="M405.33,911.31c-2.51-8.69-5.47-17.27-9.06-25.57c-2.75-6.35-6.82-10.9-10.1-16.74
					c-7.72-13.76-14.37-26-27.19-35.92c-24.19-18.74-57.06-22.74-85.09-10.44c-16.29,7.15-28.46,20.62-42.44,31.16
					c-2.16,1.63-4.43,3.33-7.11,3.7c-1.63,0.22-3.29-0.08-4.9-0.37c-6.2-1.14-12.4-2.28-18.6-3.42c-3.36-0.61-7.36-0.81-10.39-2.52
					c-3.35-1.88-5.35-5.54-7.79-8.37c-3.29-3.82-7.07-7.2-11.24-10.03c-3.23-2.19-6.76-4.12-9.11-7.23
					c-1.68-2.22-2.63-4.9-3.55-7.53c-2.09-5.94-4.18-11.89-6.27-17.83c-2.38-6.76-4.96-13.84-10.34-18.58
					c-5.68-5.01-14.18-6.58-21.28-3.94c-1.09,0.4-2.19,0.94-2.86,1.89c-0.96,1.37-0.77,3.22-0.5,4.88
					c2.51,15.68,7.81,30.72,13.23,45.59c1.78,4.88,3.24,9.88,4.94,14.79c-0.27-0.08-0.54-0.17-0.82-0.24
					c-5.5-1.45-10.88-3.35-16.08-5.66c-0.5-0.22-1.02-0.46-1.42-0.83c-0.41-0.38-0.68-0.88-0.95-1.37
					c-4.05-7.46-8.26-14.9-12.67-22.18c-4.54-7.49-9.62-14.7-15.57-21.14c-3.41-3.69-7.37-7.26-12.28-8.32
					c-4.91-1.06-10.89,1.36-12.13,6.23c-0.68,2.67,0.13,5.47,0.94,8.11c2.61,8.54,5.37,17.36,11.2,24.13
					c-6.43-2.94-12.89-5.55-19.22-8.65c-6.26-3.07-12.91-5.8-19.98-6.01c-3.31-0.1-6.98,0.55-9.03,3.16
					c-2.34,2.99-1.57,7.54,0.75,10.55c2.46,3.19,6.4,5.19,9.49,7.69c4.44,3.58,9.38,6.67,13.97,10.07
					c9.06,6.69,17.96,13.59,26.7,20.69c7.69,6.25,15.28,12.68,23.62,18.05c8.14,5.24,16.1,9.3,25.4,12.38
					c6.66,2.2,13.5,3.93,19.9,6.79c9.06,4.06,16.97,10.29,25.7,15.02s18.99,7.96,28.56,5.32c1.72-0.48,3.41-1.19,4.76-2.35
					c6.22,3.01,13.42,5.68,19.58,5.73c6.13,0.05,12.13-1.68,17.87-3.83c8.09-3.03,15.85-6.9,23.41-11.07
					c10.99-6.06,19.73-15.22,32.1-8.52c9.88,5.35,17.54,15.01,19.81,26.09c0.31,1.51,0.57,3.13,1.58,4.29
					c1.36,1.55,3.63,1.83,5.69,1.97c24.21,1.66,48.69-0.76,72.1-7.12c2.51-0.68,5.23-1.57,6.63-3.77
					C406.89,917.48,406.17,914.18,405.33,911.31z"/>
				<g>
					<path class="st2" d="M152.5,800.19c2.09,5.95,4.18,11.89,6.27,17.83c0.93,2.63,1.87,5.31,3.55,7.53
						c1.14,1.51,2.57,2.74,4.1,3.86c14.22,2.47,28.43,4.94,42.65,7.41c-7.54,3.54-14.98,7.27-22.4,11.04
						c1.11,1.3,2.32,2.49,3.8,3.32c3.04,1.71,7.04,1.91,10.39,2.52c6.2,1.13,12.4,2.28,18.6,3.42c1.62,0.3,3.27,0.6,4.9,0.37
						c2.68-0.37,4.95-2.08,7.11-3.7c13.98-10.53,26.15-24.01,42.44-31.16c26.43-11.6,57.15-8.69,80.85,7.39
						c-7.01-6.65-15.2-11.78-23.69-17c-13.3-8.18-27.38-15.11-41.98-20.64c-6.22-2.36-12.67-4.48-19.32-4.58
						c-6.32-0.09-12.5,1.66-18.54,3.53c-16.42,5.11-34.4,3.79-51.58,3.82c-16.4,0.03-32.8-0.34-49.2-0.5
						C151.18,796.48,151.85,798.35,152.5,800.19z"/>
					<path class="st2" d="M125.16,821.48c0.94,0.48,1.94,0.9,2.96,1.26c-2.8-7.87-5.42-15.81-7.52-23.89
						c-1.12,0.63-2.2,1.35-3.22,2.18c-1.61,1.31-3.08,2.94-3.58,4.95C112.22,812.35,120.1,818.88,125.16,821.48z"/>
					<path class="st2" d="M127.6,891.46c-9.3-3.07-17.26-7.13-25.4-12.38c-8.34-5.37-15.93-11.8-23.62-18.05
						c-8.74-7.1-17.64-14-26.7-20.69c-4.27-3.15-8.82-6.06-13.01-9.33c-4.13,0.82-8.05,2.7-10.82,5.83
						c-1.88,2.12-3.18,5.29-1.78,7.75c0.46,0.81,1.16,1.44,1.86,2.06c5.65,4.99,12.11,7.84,18.78,11.33
						c7.48,3.91,15.19,7.36,22.93,10.72c9.38,4.08,18.83,8.04,28.03,12.55c4.6,2.26,9.07,4.72,13.53,7.24
						c3.54,2,7.63,2.37,11.62,3.15c2.9,0.57,5.84,0.91,8.79,1.14C130.4,892.35,128.99,891.92,127.6,891.46z"/>
				</g>
				<path class="st6" d="M188,906.44c-7.41-5.32-14.65-11.36-22.44-16.1c-6.47-3.94-11.16-10.51-15.81-16.46
					c-2.46-3.14-4.74-6.19-6.59-9.74c-2.59-4.96-5.04-9.99-7.35-15.08c-0.54-1.18-1.06-2.58-0.45-3.73
					c-0.42,0.79,2.42,3.83,2.82,4.45c1.62,2.49,3.04,5.12,4.65,7.62c6.75,10.48,13.47,20.93,23.4,28.67
					c13.31,10.38,26.71,20.82,41.16,29.62c-0.94-0.57-3.9-0.18-5.15-0.5c-1.85-0.47-3.39-1.28-5-2.25
					C194.01,910.97,191.07,908.65,188,906.44z"/>
				<path class="st6" d="M104.15,880.53c-4.25-2.71-7.16-7.05-9.85-11.31c-4.33-6.85-8.54-13.79-12.08-21.08
					c-3.58-7.37-5.66-15.1-8.31-22.76c-0.21-0.6-0.37-1.36,0.08-1.82c0.34-0.35,0.91-0.37,1.35-0.17c0.44,0.2,0.77,0.58,1.06,0.96
					c1.67,2.18,2.01,4.69,3.01,7.13c1.1,2.66,1.72,5.49,2.78,8.17c1.91,4.84,3.9,9.64,6.07,14.37c2.17,4.7,4.51,9.31,7.14,13.77
					c1.31,2.22,2.69,4.4,4.14,6.53C100.73,876.06,102.35,879.38,104.15,880.53z"/>
				<path class="st6" d="M134.3,864.1c3.64,3.47,8.27,5.58,12.66,7.9c2.01,1.06,3.97,2.22,5.96,3.31c1.78,0.98,2.56,2.6,4.15,3.75
					c-5.23-3.76-11.59-5.49-17.53-7.99c-3.05-1.28-6.07-2.82-8.38-5.18c-4.4-4.51-7.16-11.24-9.89-16.82
					c-1.55-3.17-2.94-6.49-3.32-10c2.04,0.82,3.17,4.08,4.13,5.88c1.2,2.25,2.34,4.54,3.54,6.79
					C127.98,856.18,130.61,860.59,134.3,864.1z"/>
				<path class="st6" d="M217.81,875.19c0.44,1.51,1.54,2.84,3.07,3.9c-13.88-2.64-23.1-14.54-30.54-25.57
					c-0.47-0.7-0.96-1.45-0.98-2.29c5.06,5.55,10.59,10.67,16.51,15.29c2.49,1.95,6.09,4.88,9.4,2.98c1.11-0.64,1.93-1.68,2.74-2.68
					c2.04-2.49,4.27-4.83,6.66-6.98c0.63-0.56,1.34-1.14,2.18-1.19c-3.4,3.7-6.29,7.88-8.56,12.38
					C217.56,872.5,217.44,873.91,217.81,875.19z"/>
			</g>
			<path class="st13" d="M318.41,921.23c0,0,21.1,97.18,18.1,112.18s53,32,87,19s-19.29-144.83-19.29-144.83L318.41,921.23z"/>
		</g>
	</g>
</g>
<g>
	<g>
		<path class="st12" d="M372.61,75.69l-7.73,20.29h-2.06l-13.31-37.11h-5.29v-2.14h15.59v2.14h-4.76l10.32,28.66h0.11l5.91-15.4
			l-4.76-13.26h-4.49v-2.14h15.59v2.14h-5.56l10.32,28.66h0.11l10.99-28.66h-5.35v-2.14h12.75v2.14h-4.81L382,95.98h-2.06
			l-7.22-20.29H372.61z"/>
		<path class="st12" d="M418.84,88.34c-0.57,2.58-1.68,4.56-3.32,5.94c-1.64,1.37-3.77,2.06-6.39,2.06c-1.8,0-3.4-0.32-4.81-0.95
			s-2.6-1.49-3.58-2.58c-0.98-1.09-1.73-2.36-2.25-3.81c-0.52-1.45-0.78-3-0.78-4.64c0-1.68,0.27-3.26,0.8-4.76
			c0.54-1.5,1.3-2.8,2.29-3.9c0.99-1.1,2.17-1.98,3.56-2.63c1.38-0.65,2.93-0.98,4.64-0.98c1.57,0,2.98,0.28,4.23,0.83
			c1.25,0.55,2.31,1.32,3.18,2.31c0.87,0.99,1.55,2.17,2.02,3.54c0.47,1.37,0.73,2.88,0.76,4.52h-16.12c-0.02,0.3-0.03,0.5-0.03,0.6
			s0,0.16,0,0.17c0,2.1,0.16,3.81,0.47,5.13c0.31,1.32,0.75,2.35,1.31,3.09c0.56,0.74,1.23,1.24,2.01,1.51
			c0.78,0.27,1.64,0.4,2.58,0.4c0.87,0,1.7-0.12,2.47-0.35c0.78-0.23,1.48-0.6,2.1-1.11c0.62-0.51,1.17-1.17,1.64-1.98
			c0.47-0.81,0.85-1.79,1.14-2.93c0.36,0.04,0.71,0.1,1.07,0.19C418.18,88.11,418.52,88.21,418.84,88.34z M413.79,81.2
			c-0.05-1.48-0.21-2.68-0.47-3.6c-0.26-0.92-0.6-1.64-1.03-2.15s-0.93-0.87-1.51-1.06c-0.58-0.19-1.22-0.28-1.91-0.28
			c-0.73,0-1.41,0.11-2.05,0.32c-0.63,0.21-1.2,0.59-1.7,1.12c-0.5,0.53-0.91,1.26-1.24,2.17c-0.33,0.91-0.56,2.07-0.68,3.48H413.79
			z"/>
		<path class="st12" d="M439,83.95h1.87c0.2,2.03,0.59,3.73,1.18,5.08s1.31,2.43,2.18,3.24c0.86,0.8,1.85,1.37,2.97,1.7
			c1.11,0.33,2.3,0.49,3.54,0.49c1.5,0,2.78-0.19,3.84-0.56c1.06-0.37,1.93-0.9,2.62-1.56c0.69-0.67,1.19-1.47,1.5-2.41
			c0.31-0.94,0.47-1.97,0.47-3.09c0-1.39-0.23-2.54-0.7-3.44c-0.46-0.9-1.11-1.67-1.94-2.3c-0.83-0.63-1.82-1.18-2.98-1.64
			s-2.43-0.94-3.82-1.44c-1.39-0.5-2.71-1.02-3.97-1.58c-1.26-0.55-2.37-1.24-3.33-2.06c-0.96-0.82-1.72-1.82-2.29-3.01
			c-0.56-1.19-0.84-2.66-0.84-4.43c0-1.66,0.27-3.17,0.8-4.55c0.53-1.37,1.33-2.54,2.38-3.52c1.05-0.97,2.36-1.73,3.92-2.26
			c1.56-0.53,3.37-0.8,5.44-0.8c0.82,0,1.67,0.04,2.54,0.12c0.87,0.08,1.74,0.2,2.61,0.36c0.86,0.16,1.72,0.35,2.55,0.58
			c0.84,0.22,1.63,0.47,2.38,0.73l0.32,9.71h-1.87c-0.16-1.92-0.52-3.49-1.07-4.71c-0.55-1.21-1.23-2.16-2.02-2.85
			c-0.79-0.69-1.68-1.16-2.65-1.42c-0.97-0.26-1.96-0.39-2.98-0.39c-1.35,0-2.53,0.17-3.53,0.49c-1,0.33-1.83,0.8-2.49,1.42
			c-0.66,0.62-1.15,1.36-1.48,2.25c-0.33,0.88-0.49,1.88-0.49,2.98c0,1.32,0.23,2.42,0.7,3.29c0.46,0.87,1.12,1.63,1.96,2.26
			c0.85,0.63,1.86,1.19,3.05,1.68c1.19,0.49,2.49,1,3.92,1.54c1.3,0.5,2.58,1.03,3.84,1.59c1.26,0.56,2.38,1.27,3.37,2.11
			c0.99,0.85,1.79,1.89,2.39,3.13c0.61,1.24,0.91,2.78,0.91,4.61c0,1.78-0.31,3.37-0.92,4.76c-0.62,1.39-1.5,2.56-2.65,3.5
			c-1.15,0.95-2.55,1.67-4.21,2.17c-1.66,0.5-3.53,0.75-5.61,0.75c-0.91,0-1.85-0.04-2.82-0.13c-0.97-0.09-1.93-0.22-2.89-0.4
			c-0.95-0.18-1.89-0.38-2.79-0.61c-0.91-0.23-1.76-0.5-2.54-0.8L439,83.95z"/>
		<path class="st12" d="M485.21,90.24c-0.48,2.09-1.27,3.62-2.38,4.61c-1.11,0.99-2.63,1.48-4.57,1.48c-1.02,0-1.93-0.13-2.74-0.37
			c-0.81-0.25-1.5-0.65-2.07-1.19c-0.57-0.54-1.01-1.24-1.31-2.08c-0.3-0.85-0.45-1.88-0.45-3.09V74.94h-4.01V72.8h4.01v-5.19
			l4.81-0.8v5.99h6.95v2.14h-6.95v15.24c0,0.73,0.07,1.33,0.2,1.79c0.13,0.46,0.33,0.83,0.57,1.1c0.25,0.27,0.54,0.45,0.88,0.55
			c0.34,0.1,0.72,0.15,1.15,0.15c0.57,0,1.06-0.08,1.47-0.25c0.41-0.17,0.77-0.43,1.08-0.78c0.31-0.35,0.58-0.78,0.8-1.3
			c0.22-0.52,0.43-1.11,0.63-1.79c0.34,0.05,0.67,0.13,0.99,0.21S484.9,90.08,485.21,90.24z"/>
		<path class="st12" d="M511.03,95.58c-0.75,0.14-1.44,0.23-2.08,0.27c-0.64,0.04-1.15,0.05-1.52,0.05c-0.94,0-1.73-0.08-2.34-0.23
			s-1.1-0.37-1.46-0.65c-0.36-0.29-0.61-0.63-0.77-1.04c-0.16-0.41-0.26-0.86-0.29-1.36h-0.13c-0.5,0.7-1.03,1.28-1.6,1.76
			c-0.57,0.48-1.17,0.86-1.79,1.15c-0.62,0.28-1.26,0.49-1.91,0.61c-0.65,0.13-1.31,0.19-1.97,0.19c-1.09,0-2.06-0.15-2.91-0.44
			c-0.86-0.29-1.58-0.71-2.17-1.24c-0.59-0.53-1.03-1.17-1.34-1.91s-0.45-1.56-0.45-2.45c0-2.48,1.22-4.36,3.65-5.66
			c2.43-1.29,5.94-1.98,10.52-2.07c0.02-0.8,0.03-1.52,0.04-2.17c0.01-0.64,0.01-1.27,0.01-1.9c0-1.62-0.33-2.76-1-3.41
			c-0.67-0.65-1.73-0.98-3.17-0.98c-0.96,0-1.82,0.11-2.58,0.32c-0.76,0.21-1.38,0.5-1.86,0.86c0.43,0.41,0.74,0.84,0.95,1.3
			c0.21,0.46,0.31,0.91,0.31,1.35c0,0.75-0.24,1.37-0.72,1.87s-1.14,0.75-1.98,0.75c-0.36,0-0.7-0.05-1.04-0.16
			c-0.34-0.11-0.63-0.28-0.88-0.51s-0.45-0.52-0.6-0.87s-0.23-0.75-0.23-1.22c0-0.73,0.2-1.44,0.6-2.13c0.4-0.69,1-1.3,1.79-1.83
			c0.79-0.54,1.78-0.96,2.97-1.28c1.19-0.32,2.57-0.48,4.16-0.48c1.28,0,2.42,0.13,3.41,0.37c0.99,0.25,1.83,0.66,2.51,1.24
			c0.69,0.58,1.2,1.35,1.55,2.31c0.35,0.96,0.52,2.16,0.52,3.58c0,0.36,0,0.94-0.01,1.75c-0.01,0.81-0.02,1.71-0.04,2.69
			c-0.02,0.98-0.03,1.97-0.04,2.98c-0.01,1.01-0.01,1.89-0.01,2.66c0,0.78,0.02,1.44,0.05,1.97c0.04,0.53,0.12,0.95,0.27,1.26
			c0.14,0.31,0.36,0.54,0.64,0.67c0.28,0.13,0.69,0.2,1.2,0.2c0.45,0,1.03-0.05,1.76-0.16V95.58z M502.45,84.57
			c-1.94,0.05-3.51,0.2-4.71,0.44c-1.19,0.24-2.12,0.58-2.78,1.02c-0.66,0.44-1.11,0.97-1.34,1.59c-0.23,0.62-0.35,1.34-0.35,2.14
			c0,1.39,0.29,2.43,0.87,3.12c0.58,0.69,1.38,1.03,2.39,1.03c0.55,0,1.17-0.12,1.86-0.35c0.69-0.23,1.33-0.61,1.94-1.14
			c0.61-0.53,1.11-1.22,1.51-2.07c0.4-0.86,0.6-1.92,0.6-3.18V84.57z"/>
		<path class="st12" d="M522.53,93.44h3.61v2.14h-12.43v-2.14h4.01v-18.5h-4.01V72.8h8.82v3.88h0.11c0.73-1.48,1.71-2.62,2.94-3.41
			c1.23-0.79,2.82-1.19,4.76-1.19c2.44,0,4.26,0.63,5.45,1.89c1.19,1.26,1.79,3.05,1.79,5.39v14.09h3.88v2.14h-12.3v-2.14h3.61V78.6
			c0-1.41-0.33-2.45-0.99-3.12c-0.66-0.67-1.59-1-2.78-1c-0.91,0-1.76,0.19-2.54,0.57c-0.78,0.38-1.47,0.98-2.04,1.78
			c-0.58,0.8-1.04,1.83-1.38,3.07c-0.34,1.25-0.51,2.73-0.51,4.44V93.44z"/>
		<path class="st12" d="M567.64,93.44h4.01v2.14h-8.82v-3.23h-0.11c-0.46,0.77-0.97,1.4-1.51,1.91c-0.54,0.51-1.12,0.92-1.73,1.23
			c-0.61,0.31-1.24,0.53-1.9,0.65c-0.66,0.13-1.33,0.19-2,0.19c-1.69,0-3.2-0.32-4.52-0.95c-1.32-0.63-2.43-1.49-3.34-2.57
			c-0.91-1.08-1.6-2.34-2.07-3.78c-0.47-1.44-0.71-2.99-0.71-4.63c0-1.71,0.26-3.32,0.78-4.83c0.52-1.51,1.25-2.81,2.21-3.92
			c0.95-1.11,2.09-1.98,3.42-2.62c1.33-0.64,2.8-0.96,4.42-0.96c1.57,0,2.94,0.33,4.12,0.98c1.18,0.65,2.12,1.56,2.83,2.74h0.11
			V58.87h-4.28v-2.14h9.09V93.44z M550.23,84.25c0,2.03,0.14,3.69,0.43,4.99c0.29,1.29,0.69,2.31,1.2,3.05
			c0.52,0.74,1.14,1.25,1.86,1.52c0.72,0.28,1.51,0.41,2.37,0.41c1.36,0,2.47-0.29,3.33-0.88c0.86-0.59,1.55-1.36,2.06-2.33
			c0.51-0.96,0.86-2.05,1.06-3.28c0.2-1.22,0.29-2.46,0.29-3.73c0-1.82-0.16-3.36-0.5-4.61c-0.33-1.26-0.79-2.27-1.38-3.04
			c-0.59-0.77-1.29-1.32-2.1-1.66c-0.81-0.34-1.7-0.51-2.66-0.51c-0.86,0-1.65,0.13-2.38,0.4c-0.73,0.27-1.36,0.77-1.9,1.51
			c-0.54,0.74-0.95,1.76-1.24,3.06C550.38,80.47,550.23,82.16,550.23,84.25z"/>
		<path class="st12" d="M614.86,75.69l-7.73,20.29h-2.06l-13.32-37.11h-5.29v-2.14h15.59v2.14h-4.76l10.32,28.66h0.11l5.91-15.4
			l-4.76-13.26h-4.49v-2.14h15.59v2.14h-5.56l10.32,28.66h0.11l10.99-28.66h-5.35v-2.14h12.75v2.14h-4.81l-14.17,37.11h-2.06
			l-7.22-20.29H614.86z"/>
		<path class="st12" d="M652.53,93.44h4.01v2.14h-12.83v-2.14h4.01v-18.5h-4.01V72.8h8.82V93.44z M650.12,65.26
			c-0.46,0-0.89-0.08-1.27-0.23c-0.38-0.15-0.72-0.37-1.02-0.65c-0.29-0.29-0.52-0.62-0.68-1c-0.16-0.38-0.24-0.82-0.24-1.3
			c0-0.46,0.08-0.89,0.25-1.28c0.17-0.39,0.4-0.73,0.68-1.02c0.29-0.29,0.62-0.51,1.02-0.67c0.39-0.16,0.81-0.24,1.26-0.24
			c0.45,0,0.87,0.08,1.26,0.23c0.39,0.15,0.74,0.37,1.03,0.65c0.29,0.29,0.52,0.62,0.68,1c0.16,0.38,0.24,0.82,0.24,1.3
			s-0.09,0.92-0.25,1.31s-0.4,0.73-0.68,1c-0.29,0.28-0.62,0.5-1.02,0.66C650.99,65.18,650.57,65.26,650.12,65.26z"/>
		<path class="st12" d="M676.35,90.24c-0.48,2.09-1.27,3.62-2.38,4.61c-1.11,0.99-2.63,1.48-4.57,1.48c-1.02,0-1.93-0.13-2.74-0.37
			c-0.81-0.25-1.5-0.65-2.07-1.19c-0.57-0.54-1.01-1.24-1.31-2.08c-0.3-0.85-0.45-1.88-0.45-3.09V74.94h-4.01V72.8h4.01v-5.19
			l4.81-0.8v5.99h6.95v2.14h-6.95v15.24c0,0.73,0.07,1.33,0.2,1.79c0.13,0.46,0.33,0.83,0.57,1.1c0.25,0.27,0.54,0.45,0.88,0.55
			c0.34,0.1,0.72,0.15,1.15,0.15c0.57,0,1.06-0.08,1.47-0.25s0.77-0.43,1.08-0.78c0.31-0.35,0.58-0.78,0.8-1.3s0.43-1.11,0.63-1.79
			c0.34,0.05,0.67,0.13,0.99,0.21C675.74,89.95,676.05,90.08,676.35,90.24z"/>
		<path class="st12" d="M687.45,93.44h3.61v2.14h-12.43v-2.14h4.01V58.87h-4.01v-2.14h8.82v19.65h0.11
			c0.75-1.37,1.73-2.43,2.95-3.18c1.22-0.75,2.79-1.12,4.72-1.12c2.48,0,4.31,0.63,5.5,1.89c1.19,1.26,1.78,3.05,1.78,5.39v14.09
			h3.88v2.14h-12.3v-2.14h3.61V78.74c0-1.5-0.33-2.58-0.99-3.25c-0.66-0.67-1.61-1-2.84-1c-0.89,0-1.72,0.18-2.5,0.53
			c-0.78,0.36-1.45,0.91-2.03,1.66c-0.58,0.75-1.04,1.71-1.38,2.89c-0.34,1.18-0.51,2.59-0.51,4.25V93.44z"/>
	</g>
	<g>
		<path class="st12" d="M281.69,183.38c0,3.31,0.14,6.43,0.43,9.35c0.29,2.92,1.08,5.48,2.37,7.68c1.29,2.19,3.25,3.93,5.89,5.22
			c2.63,1.29,6.3,1.93,10.99,1.93c4.77,0,8.62-0.66,11.54-1.99c2.92-1.33,5.18-3.15,6.78-5.48c1.6-2.33,2.66-5.08,3.2-8.25
			c0.54-3.17,0.81-6.61,0.81-10.3v-50.27h-11.54v-4.62h28.22v4.62H328.9v49.63c0,5.16-0.42,9.7-1.27,13.62
			c-0.85,3.92-2.37,7.21-4.56,9.87c-2.19,2.65-5.16,4.67-8.89,6.03s-8.48,2.05-14.26,2.05c-5.16,0-9.6-0.56-13.33-1.67
			c-3.73-1.12-6.79-2.85-9.18-5.19c-2.39-2.35-4.15-5.34-5.28-8.97c-1.14-3.64-1.7-7.95-1.7-12.96v-52.4h-11.54v-4.62h34.34v4.62
			h-11.54V183.38z"/>
		<path class="st12" d="M369.24,205.89h10.97v4.62h-33.76v-4.62h11.54v-74.62h-11.54v-4.62h33.76v4.62h-10.97V205.89z
			 M371.55,167.22l35.32-35.96h-8.72v-4.62h27.18v4.62h-11.72l-31.86,32.03l37.63,42.59h9v4.62h-31.86v-4.62h8.66L371.55,167.22z"/>
		<path class="st12" d="M464.81,126.65c6.12,0,11.27,0.46,15.47,1.39c4.19,0.92,7.58,2.23,10.16,3.92c2.58,1.69,4.42,3.74,5.54,6.15
			c1.12,2.41,1.67,5.07,1.67,7.99c0,2.54-0.39,4.94-1.18,7.21c-0.79,2.27-1.97,4.33-3.55,6.18c-1.58,1.85-3.55,3.43-5.92,4.76
			c-2.37,1.33-5.15,2.34-8.34,3.03v0.23c2.66,0.62,4.84,1.52,6.55,2.71c1.71,1.19,3.1,2.65,4.15,4.39c1.06,1.73,1.89,3.7,2.48,5.92
			c0.6,2.21,1.13,4.65,1.59,7.3c0.46,2.73,0.87,5.22,1.24,7.47s0.86,4.19,1.47,5.83c0.62,1.64,1.45,2.91,2.51,3.81
			c1.06,0.9,2.53,1.36,4.42,1.36c0.35,0,0.84-0.02,1.47-0.06c0.63-0.04,1.34-0.12,2.11-0.23v4.44c-0.65,0.15-1.37,0.29-2.14,0.4
			c-0.77,0.12-1.55,0.2-2.34,0.26c-0.79,0.06-1.56,0.1-2.31,0.12c-0.75,0.02-1.41,0.03-1.99,0.03c-3.35,0-5.97-0.36-7.88-1.07
			c-1.9-0.71-3.37-1.82-4.39-3.32c-1.02-1.5-1.74-3.38-2.16-5.66c-0.42-2.27-0.83-4.96-1.21-8.08c-0.58-4.54-1.15-8.35-1.73-11.43
			c-0.58-3.08-1.38-5.55-2.42-7.42c-1.04-1.87-2.44-3.19-4.21-3.98c-1.77-0.79-4.17-1.18-7.21-1.18h-10.85v36.76h12.12v4.62h-34.92
			v-4.62h11.54v-74.62h-11.54v-4.62H464.81z M455.81,164.5h7.68c4.15,0,7.63-0.35,10.42-1.04c2.79-0.69,5.04-1.78,6.75-3.26
			c1.71-1.48,2.92-3.37,3.64-5.66c0.71-2.29,1.07-5.05,1.07-8.28c0-2.69-0.29-4.99-0.87-6.9c-0.58-1.9-1.65-3.45-3.2-4.65
			c-1.56-1.19-3.71-2.07-6.46-2.63c-2.75-0.56-6.32-0.84-10.71-0.84h-8.31V164.5z"/>
		<path class="st12" d="M533.9,205.89v4.62h-28.11v-4.62h10.97l30.01-80.11h4.56l28.16,80.11h11.43v4.62h-35.49v-4.62h12
			l-8.66-24.64h-27.24l-9.18,24.64H533.9z M545.5,144.02l-12.18,32.55h23.83l-11.43-32.55H545.5z"/>
		<path class="st12" d="M616.31,131.26v74.62h11.54v4.62h-34.34v-4.62h11.54v-74.62h-11.54v-4.62h34.34v4.62H616.31z"/>
		<path class="st12" d="M706.34,211.37h-4.62l-49.92-77.39l-0.29,0.06v71.85h10.39v4.62h-27.13v-4.62h11.54v-74.62h-11.54v-4.62
			h25.8l40.28,62.45l0.29-0.06v-57.77h-11.54v-4.62h28.28v4.62h-11.54V211.37z"/>
		<path class="st12" d="M747.03,164.68h7.56c2.58,0,4.73-0.1,6.46-0.29c1.73-0.19,3.13-0.74,4.18-1.64c1.06-0.9,1.86-2.31,2.4-4.21
			c0.54-1.9,0.92-4.59,1.15-8.05h4.1v34.17h-4.1c-0.19-3.5-0.52-6.26-0.98-8.28c-0.46-2.02-1.21-3.55-2.25-4.59
			c-1.04-1.04-2.43-1.69-4.18-1.96c-1.75-0.27-4.01-0.4-6.78-0.4h-7.56v36.48h15.29c3,0,5.64-0.12,7.91-0.35s4.25-0.65,5.94-1.27
			c1.69-0.61,3.15-1.48,4.36-2.6c1.21-1.12,2.26-2.56,3.14-4.33c0.88-1.77,1.63-3.92,2.25-6.46c0.62-2.54,1.19-5.54,1.73-9h4.04
			l-1.15,28.63h-66.31v-4.62h11.54v-74.62h-11.54v-4.62h64.87l1.15,23.14h-4.04c-0.58-3.85-1.29-6.97-2.14-9.38
			c-0.85-2.4-2.03-4.29-3.55-5.66c-1.52-1.37-3.5-2.29-5.94-2.77c-2.44-0.48-5.53-0.72-9.26-0.72h-18.29V164.68z"/>
	</g>
</g>
<g>
	<path class="st10" d="M338.03,626.63c0,0-4.01,8.46-3.66,9.66c0.35,1.21,7.4-4.29,12.22-6.28s13.11-4.16,18.19-1.61
		c5.08,2.55,5,4.1,4.02,3.53c-0.98-0.57-4.48-2.13-7.96-2.23c-3.3-0.1-7.62,0.76-6.64,1.33c0.98,0.57,6.67-0.12,10.51,3.41
		c1.25,1.15,2.21,1.82,1.44,1.97c-0.77,0.15-6.04-4.89-15.65-2.34c-7.77,2.06-9.23,14.63-10.64,12.61c-1.4-2.02,4.31-9.3,2.77-8.99
		c-1.53,0.31-16.35,10.7-17.34,7.31c-0.99-3.38,3.93-18.91,3.93-18.91L338.03,626.63z"/>
	<g>
		<path class="st18" d="M351.33,614.64c0,0-5.3,5.98-9.87,12.41c-4.57,6.43-6.16,4.14-6.49,3.04c-0.32-1.09-3.94,5.43-4.42,3.79
			c-0.48-1.64-1.74-4.87-1.74-4.87s-1.76,2.38-2.58,1.68c-0.82-0.71-2.33-7.94-1.73-10.09
			C325.11,618.45,351.33,614.64,351.33,614.64z"/>
		<g>
			<path class="st18" d="M269.14,508.42c-18.34-16.11-29.2-33.99-44.04-45.91c-14.32-11.5-50.15-6.89-81.7-13.19
				c-55.83-11.16-94.75-37.49-89.21-27.4c5.69,10.38,31.55,33.55,55.79,46.18c0,0-35.09-11.6-47.52-17.43
				c-12.13-5.69,1.88,13.51,12.2,23.26c10.64,10.04,38.87,26.38,65.35,33.51c0,0-34.11-6.61-39.32-7.45
				c-5.17-0.84,9.94,15.02,27.54,23.7c18.19,8.97,43.85,10.61,43.85,10.61s-21.95,3.32-22.7,5.19c-0.76,1.88,28.18,18.43,59,8.92
				c0,0-27.14,10.42-25.03,13.81c2.03,3.27,27.8,10.89,51.58-1.02c-5.47,3.06-15.69,9.4-12.86,12.57
				c3.71,4.14,34.68,7.92,49.15-8.69c-3.26,4.17-10.13,13.47-8.62,15.86c0.91,1.44,5.62,1.2,10.75,0l78.85-24.55
				C345.03,553.69,279.42,517.45,269.14,508.42z"/>
			<path class="st4" d="M313.77,536.78c0.08-0.26,0.14-0.53,0.22-0.79c-19.25-10.86-39.51-22.88-44.85-27.57
				c-18.34-16.11-29.2-33.99-44.04-45.91c-14.32-11.5-50.15-6.89-81.7-13.19c-10.28-2.05-19.97-4.62-28.93-7.38
				c4.9,6.89,12.43,14.29,24.04,20.54c31.82,17.1,35.63,19.21,35.63,19.21s-54.15-22.57-45.08-9.11
				c9.07,13.46,43.66,21.58,43.66,21.58s-39.27,3.01-20.36,10.93c18.91,7.92,37.59,7.49,37.59,7.49s-33.27,1.75-15.04,9.53
				s47.94,9.09,47.94,9.09s-25.11,6.71-11.51,12.85c13.6,6.14,34.88,3.71,34.88,3.71s-21.3,8.81-2.5,10.96
				C262.54,560.85,305.19,564.96,313.77,536.78z"/>
		</g>
		<path class="st10" d="M303.04,630.61c0,0-8.04,5.33-8.37,6.52c-0.33,1.19,8.82-0.19,14.14,0.39c5.32,0.57,13.8,2.61,16.93,7.17
			c3.13,4.56,2.23,5.85,1.67,4.9s-2.82-3.92-5.85-5.64c-2.87-1.63-7.14-2.93-6.58-1.98c0.56,0.94,5.96,3.03,7.47,7.84
			c0.49,1.57,0.99,2.59,0.23,2.36c-0.76-0.23-2.73-7-12.59-9.35c-7.96-1.89-15.95,8.14-16.11,5.75c-0.17-2.38,8.75-5.9,7.24-6.36
			c-1.52-0.46-20.14,1.43-19.21-1.91c0.93-3.34,13.54-14.28,13.54-14.28L303.04,630.61z"/>
		<path class="st13" d="M433.14,491.56c-14.44-12.64-29.55-9.89-43.28,0.64c-11.8,9.05-27.3,16.16-39.3,17.35
			c9.64-18.63,25.4-33.42,31.75-49.66c6.72-17.22-24.57-47.43-39.35-79.09c-33.35-71.47-6.51-135.02-19.18-124.02
			c-29.43,25.52-34.31,82.45-33.13,102.14c0,0-14.57-39.1-7.85-78.58c2.64-15.5-27.46,14.33-32.69,48.03
			c-2.55,16.43-1.15,49.93,9.24,76.9c0,0-22.15-55.03-25.01-60.2c-2.86-5.17-11.41,30.71-4.98,57.22
			c4.68,19.29,18.65,41.86,18.65,41.86s-20.15-17.01-23.05-16.86c-2.9,0.15-2.38,30.63,31.09,51.78c0,0-31.96-17.83-34.57-14.86
			c-2.57,2.91,6.94,26.93,39.51,41.1c-6.11-2.69-24.23-10.29-26.28-6.64c-2.38,4.23,14.15,28.72,43.65,34.33
			c-7.21-1.14-22.88-3.37-24.71-1.52c-2.39,2.41,5.92,13.15,25.87,17.92c2.32,0.62,4.49,1.02,6.6,1.33
			c-6.03,1.36-20.67,5.96-30.67,9.15c0,0-22.39,8.48-39.56,12.3c-17.17,3.82-109.75,36.17-101.69,42.04s21.17,3.86,20.33,6.54
			c-0.84,2.67-14.91,18.21-9.22,20.56c5.69,2.34,19.58-0.98,19.58-0.98s-13.87,19.29-4.85,19.78c9.02,0.49,21.23-5.64,21.23-5.64
			s-7.42,12.5-0.31,15.27c7.11,2.76,21.62-6.3,21.62-6.3s-2.37,12.78,4.07,14.49c6.44,1.71,15.98-9.66,15.98-9.66
			s2.65,13.73,7.03,12.95c4.38-0.78,25.01-37.35,34.93-50.48c3.89-5.14,11.72-13.05,15.75-12.98l-0.01,0.26
			c23.98,2.97,59.99,16.92,92.5-1.33c39.52-22.18,47.06-77.59,64.35-87.51c17.26-9.9,25.21-6.21,26.79-11.69
			C445.55,512,444.1,501.16,433.14,491.56z"/>
		<path class="st3" d="M443.98,517.47c0.09-0.3,0.16-0.63,0.23-0.96c-5.86-1.14-12.84-1.84-20.43-1.19
			c-20.02,1.7-28.26,5.64-31.76,17.8s-22.75,54.4-36.36,64.82c-13.62,10.42-39.23,13.57-40.31,9.13c-1.08-4.44,3.74-7.77-0.96-7.22
			c-4.69,0.54-25.82,8.16-24.8,4.23c1.02-3.93,7.97-7.54,1.13-6.31c-6.84,1.22-19.86,7.69-19.76,5.3c0.11-2.39,3.65-5.78-2.77-4.53
			c-6.42,1.25-12.26-1.06-19.72,4.51c-7.46,5.57-31.27,64.45-31.68,54.47c-0.41-9.98,6.05-31.55-0.17-25.11
			c-6.23,6.44-23.41,40.17-21.16,27.54c2.25-12.63,8.68-33.4,8.68-33.4s-38.88,34.95-32.57,26.53c6.31-8.42,34.6-33.99,29.89-33.05
			s-56.53,30.81-47.15,20.16c9.38-10.65,41.55-28.03,39.4-27.35c-2.15,0.68-60.83,22.6-49.39,13.26
			c11.44-9.34,40.02-22.14,40.02-22.14s-56.28,1.31-39.86-5.37c16.42-6.68,43.7-14.35,60.96-20.98c5.78-2.22,10.34-4.36,13.88-6.24
			c-1.16,0.29-2.3,0.56-3.42,0.8c-17.17,3.82-105.63,21.97-101.69,42.04c1.84,9.38,21.17,3.86,20.33,6.54
			c-0.84,2.67-14.91,18.21-9.22,20.56c5.69,2.34,19.58-0.98,19.58-0.98s-13.87,19.29-4.85,19.78c9.02,0.49,21.23-5.64,21.23-5.64
			s-7.42,12.5-0.31,15.27c7.11,2.76,21.62-6.3,21.62-6.3s-2.37,12.78,4.07,14.49c6.44,1.71,15.98-9.66,15.98-9.66
			s2.58,13.3,7.03,12.95c26.28-2.11,25.01-37.35,34.93-50.48c3.88-5.14,11.72-13.05,15.75-12.98l-0.01,0.26
			c0-0.04,13.28,2.27,14.41,2.49c2.69,0.53,5.38,1.08,8.07,1.61c2.65,0.51,5.33,0.79,7.8,1.87c0.83,0.36,1.75,0.82,2.04,1.64
			c0.33,0.97-1.64,2.11-2.25,2.93c-0.58,0.78-1.2,1.53-1.76,2.33c-0.19,0.27-0.52,0.62-0.36,0.98c0.29,0.63,1.88,0.25,2.37,0.16
			c0.28-0.05,2.58-0.34,2.65-0.59c-0.32,1.34-0.61,2.55-0.68,3.93c0,0.08-0.01,0.18,0.04,0.25c0.06,0.09,0.18,0.12,0.3,0.13
			c1.07,0.15,2.11-0.47,2.86-1.11c0.42-0.36,1.86-1.63,1.84-2.11c0.03,0.78,0.03,1.36,0.38,2.07c0.31,0.63,1.07,0.11,1.44-0.18
			c0.15-0.12,0.29-0.25,0.43-0.38c1.46-1.4,2.97-2.66,4.36-4.13c1.17-1.23,2.38-2.47,3.87-3.37c1.61-0.97,2.43-0.79,4.18-0.64
			c3.6,0.31,7.42,0,11-0.32c7.63-0.67,15.12-2.38,22.11-5.27c2.55-1.05,5.02-2.26,7.41-3.6c39.52-22.18,48.89-77.96,64.35-87.51
			C434.08,518.72,442.4,522.94,443.98,517.47z"/>
		<path class="st18" d="M317.36,375.94c-0.06-0.14-0.09-0.26-0.12-0.41c-0.55-2.95-6.63-36.01-7.31-48.92
			c-0.71-13.51-11.45,24.05-12.73,42.58c-1.27,18.57,0.24,20.93,0.24,20.93s-19.33-34.59-21.94-44.91
			c-2.61-10.31-9.44,25.02-5.78,40.44c2.15,9.05,5.18,19.07,7.32,25.81c0.67,2.11-2.07,3.64-3.76,2.09l-8.25-7.55
			c-1.48-1.35-3.93-0.36-3.85,1.56c0.19,4.43,0.83,11.04,2.8,17c1.07,3.23,2.13,5.87,3.07,7.96c0.83,1.83-1.19,3.6-3.08,2.71
			c-3.76-1.77-7.77-2.93-7.99,0.04c-0.42,5.67,9.36,21.38,9.81,23.32c0.46,1.94-14.56-13-14.4-4.16c0.1,5.2,6.49,12.78,11.75,18.15
			c1.61,1.64-0.15,4.18-2.39,3.44l0,0c-1.93-0.63-3.68,1.24-2.75,2.95c2.75,5.05,8.09,13.21,16.25,18.84
			c12.61,8.7-9.25,1.49-8.99,3.95c0.26,2.46,12.6,18.11,19.64,22.17c7.04,4.06-16.8,9.62-2.35,13.76
			c14.44,4.14,26.47,0.24,29.86-3.67c3.39-3.9,0.67-26.74,6.44-46.05c5.75-19.25,13.01-26.76,15.7-46.03
			C337.15,423.48,318.75,379.25,317.36,375.94z"/>
		<path class="st3" d="M327.73,532.31c-0.24-2.23-7.69-28.65-1.87-27.85c5.81,0.8,8.22,6.02,7.49,3.61
			c-0.72-2.42-6.49-21.73-1.4-23.34c5.08-1.61,11.07,2.96,11.07,2.96s-8.16-20.26-2.36-23.68c5.79-3.42,15.88-0.85,15.88-0.85
			s-11.13-18.27-9.11-20.59c2.02-2.32,7.63-1.06,7.63-1.06s-22.15-25.4-25.74-37.37c-3.58-11.95-10.5-33.64-9.25-40.96
			c1.25-7.31-12.03,10.71-13.29,26.42c-1.26,15.74,1.54,26.87,1.54,26.87s-12.59-21.47-14.5-18.06c-1.92,3.41-3.09,28.7,4.74,39.83
			c7.83,11.13-16.14-14.02-16.14-14.02s-3.58,12.19,0.79,22.72c4.37,10.54,12.51,18.12,12.51,18.12l-22.42-12.39
			c0,0-0.38,9.37,9.86,21.52c10.25,12.16,14.21,14.85,14.21,14.85l-18.79-6.13c0,0,4.31,10.26,13.73,18.91
			c9.43,8.65,12.79,10.03,12.79,10.03s-21.34-3.97-18.34,2.58c3,6.55,15.98,16.13,15.98,16.13s-19.34,10.74-1.22,14.43
			C319.63,548.69,327.73,532.31,327.73,532.31z"/>
		<g>
			<g>
				<g>
					<path class="st15" d="M446.02,546.88c-0.01,0-0.02,0-0.04,0.01c-0.36,0.05-0.62-0.2-0.59-0.55c0.01-0.08,0.77-8.21,4.83-18.7
						c3.63-9.38,10.58-22.33,23.33-32.11c11.2-8.6,23.09-13.24,35.43-14.1c9.28-0.65,16.6,1.13,19.46,2.27
						c0.24,0.1,0.35,0.38,0.25,0.63c-0.1,0.25-0.39,0.38-0.63,0.28c-6.97-2.77-30.32-6.42-53.87,11.72
						c-12.45,9.59-19.24,22.28-22.78,31.47c-3.97,10.31-4.72,18.27-4.72,18.35C446.65,546.5,446.36,546.82,446.02,546.88z"/>
				</g>
				<path class="st15" d="M460,508.71c0,0,0.78-5.4-1.95-7.98c-2.73-2.59-8.43-3.16-9.01-2.74c-0.58,0.42-1.17,7.45,4.37,10.25
					C456.76,509.94,460,508.71,460,508.71z"/>
				<path class="st15" d="M469.87,498.18c0,0,1.7-4.92-0.23-7.87c-1.93-2.94-6.82-4.55-7.41-4.27c-0.59,0.29-2.43,6.74,1.92,10.42
					C466.78,498.7,469.87,498.18,469.87,498.18z"/>
				<path class="st15" d="M482.14,489.3c0,0,3.12-3.96,2.53-7.32c-0.59-3.33-4.09-6.42-4.67-6.36c-0.59,0.06-4.33,5.33-2.02,10.16
					C479.38,488.73,482.14,489.3,482.14,489.3z"/>
				<path class="st15" d="M495.24,483.52c0,0,3.59-2.93,3.82-6.15c0.23-3.19-2.12-6.8-2.64-6.87c-0.52-0.07-4.91,3.9-4,8.84
					C492.98,482.37,495.24,483.52,495.24,483.52z"/>
				<path class="st15" d="M508.88,480.89c0,0,3.75-1.79,4.68-4.65c0.93-2.83-0.25-6.63-0.68-6.82c-0.43-0.19-5.08,2.36-5.44,7.02
					C507.22,479.31,508.88,480.89,508.88,480.89z"/>
				<path class="st15" d="M520.21,481.17c0,0,3.58-0.39,5.19-2.56c1.59-2.15,1.76-5.78,1.46-6.07c-0.29-0.29-4.83,0.49-6.5,4.37
					C519.34,479.3,520.21,481.17,520.21,481.17z"/>
				<path class="st15" d="M462.12,509.49c0,0,5.11-2.96,8.86-1.9c3.72,1.05,5.87,6.16,5.69,6.8c-0.18,0.64-8.32,2.28-11.24,0.11
					C462.5,512.33,462.12,509.49,462.12,509.49z"/>
				<path class="st15" d="M471.23,499.99c0,0,4.4-3.27,8.1-2.73c3.67,0.53,6.41,4.91,6.34,5.51c-0.08,0.6-7.51,3.01-10.58,1.39
					C472,502.52,471.23,499.99,471.23,499.99z"/>
				<path class="st15" d="M483.09,491.01c0,0,4.84-1.36,7.69,0.51c2.84,1.86,3.49,6.95,3.2,7.48c-0.29,0.53-7.38-0.06-9.3-2.72
					C482.76,493.62,483.09,491.01,483.09,491.01z"/>
				<path class="st15" d="M495.86,485.6c0,0,4.51-0.37,6.71,1.9c2.2,2.26,1.89,7.14,1.54,7.57c-0.35,0.44-6.53-1.45-7.77-4.29
					C495.12,487.96,495.86,485.6,495.86,485.6z"/>
				<path class="st15" d="M509.06,482.9c0,0,4.02,0.42,5.61,2.87c1.59,2.46,0.57,6.89,0.19,7.23c-0.38,0.34-5.53-2.45-6.18-5.26
					C508.04,484.94,509.06,482.9,509.06,482.9z"/>
				<path class="st15" d="M520.18,483.3c0,0,3.44,0.9,4.54,3.3c1.1,2.42-0.31,6.27-0.68,6.52c-0.37,0.26-4.51-2.93-4.75-5.54
					C519.06,485,520.18,483.3,520.18,483.3z"/>
				<path class="st15" d="M529.14,484.51c0,0,4.27-1.65,7.14-0.05c2.86,1.59,4.13,6.42,3.93,6.94c-0.2,0.52-6.77,0.46-8.89-1.95
					C529.19,487.03,529.14,484.51,529.14,484.51z"/>
			</g>
		</g>
	</g>
	<path class="st7" d="M438.09,508.81c1.68-1.28,5.17-1.75,7.27-0.92c4.73,1.87,15.77,5.21,18.25,13.65
		c0.12,0.39-0.25,0.73-0.67,0.63c-2.95-0.69-12.81-2.72-21.88-1.16C431.47,522.67,431.21,514.06,438.09,508.81z"/>
	<path class="st8" d="M439.83,514c-2.63-1.21-2.2-3.51-0.96-5.66c1.83-0.9,4.67-1.16,6.49-0.44c4.37,1.73,14.12,4.72,17.54,11.83
		C450.42,514.86,445.23,516.48,439.83,514z"/>
	<path class="st0" d="M423.16,499.47c0.06,1.9,1.75,3.51,3.77,3.58c2.02,0.07,3.61-1.41,3.55-3.31c-0.06-1.9-1.75-3.5-3.77-3.58
		C424.69,496.09,423.1,497.57,423.16,499.47z"/>
</g>
<g>
	<g>
		<path class="st16" d="M646.38,648.27c-0.04,0.07-0.09,0.13-0.15,0.19c-0.42,0.39-1.19,0.46-1.71,0.15
			c-0.39-0.23-9.6-5.77-8.59-17.53c0.94-11.02-12.1-21.79-21.49-24.36c-11.94-3.27-21.47-2.02-21.56-2.01
			c-0.66,0.09-1.3-0.23-1.42-0.72c-0.12-0.49,0.32-0.96,0.98-1.05c0.41-0.06,10.29-1.34,22.85,2.09
			c10.33,2.83,24.11,14.15,23.08,26.17c-0.92,10.77,7.58,15.95,7.67,16C646.48,647.45,646.61,647.9,646.38,648.27z"/>
	</g>
	<path class="st16" d="M650.42,605.96c0,0,0.46,4.01-4.65,9.46c-5.11,5.45-11.49,4.23-11.49,4.23s-0.52-4.76,4-8.39
		S650.42,605.96,650.42,605.96z"/>
	<path class="st16" d="M634.56,594.26c0,0,1.88,3.77-1.08,10.03c-2.96,6.26-9.55,6.34-9.55,6.34s-2.22-4.48,0.84-8.87
		C627.82,597.36,634.56,594.26,634.56,594.26z"/>
	<path class="st16" d="M615.89,586.62c0,0,3.41,3.13,3.29,9.76c-0.12,6.63-6.33,8.25-6.33,8.25s-4.03-3.73-3.02-8.61
		C610.84,591.15,615.89,586.62,615.89,586.62z"/>
	<path class="st16" d="M593.02,587.1c0,0,5.13,1.33,9.75,7.02c4.63,5.68,0.5,9.48,0.5,9.48s-6.08-1.6-8.7-6.14
		C591.95,592.92,593.02,587.1,593.02,587.1z"/>
	<path class="st16" d="M568.89,604.58c0,0,3.64-2.99,12.51-3.95c8.87-0.97,12.02,3.31,12.02,3.31s-4.34,3.53-11.01,3.57
		C575.74,607.55,568.89,604.58,568.89,604.58z"/>
	<path class="st16" d="M588.3,620.73c0,0,4.91-1.73,8.7-7.74c3.79-6.01-0.85-9.47-0.85-9.47s-5.82,2.06-7.78,6.78
		S588.3,620.73,588.3,620.73z"/>
	<path class="st16" d="M598.52,620.18c0,0,5.33-0.8,10.96-5.97c5.63-5.16,2.25-9.34,2.25-9.34s-6.32,0.97-9.76,5.2
		C598.53,614.31,598.52,620.18,598.52,620.18z"/>
	<path class="st16" d="M607.65,622.23c0,0,5.43,0.1,12.49-3.99c7.05-4.09,5.03-8.73,5.03-8.73s-6.45-0.1-11.08,3.45
		C609.44,616.51,607.65,622.23,607.65,622.23z"/>
	<path class="st16" d="M614.59,629.1c0,0,5.23,1.11,13.44-1.55c8.22-2.66,7.83-7.52,7.83-7.52s-6.21-1.3-11.9,1.29
		C618.27,623.89,614.59,629.1,614.59,629.1z"/>
	<g>
		<g>
			<path class="st18" d="M677.52,647.57c0,0-5.74,11.98-19.13,20.77c-12.89,8.46-25.13,8.82-34.74,15.03
				c-9.34,6.03-29.32,29.56-50.63,45.31c-20.08,14.83-40.02,20.68-38.33,23.68c1.74,3.08,8.14,5.5,13.49,4.17
				c5.5-1.37-6.65,4.1-5.71,5.58c0.96,1.49,13.22,3.09,19.13,0.01c6.05-3.15-8.9,6.55-7.32,8.2c1.6,1.68,14.85-0.32,22.81-6.49
				c8.13-6.29-8.64,6.79-7,8.8c1.67,2.05,17.6-3.66,24.83-12.17c7.27-8.55-4.98,8.51-6.33,10.68c-1.35,2.17,9.89,0.14,21.54-15.32
				c11.66-15.49-6.08,10.09-4.77,10.92c1.32,0.84,13.9-8.21,17.53-13.67c3.63-5.44-2.94,7.9-4.47,9.94
				c-1.53,2.04,9.79-2.62,15.93-12.16c6.11-9.5,6.56-10.7,6.34-7.99c-0.23,2.74-7.6,10.51-5.15,12.69
				c2.5,2.22,13.12-9.74,16.84-16.35c3.7-6.57-4.23,10.45-3.7,11.59c0.54,1.15,11.27-6.14,14.72-13.93c3.41-7.7-0.6,4.67-2.64,9.63
				c-2.06,5,12.37-5.19,14.58-17.1c2.14-11.55,0.67,5.46,0.17,9.66c-0.52,4.25,12.25-7.8,11.74-18.36
				c-0.49-10.17,3.14,6.18,0.84,11.97c-2.32,5.83,15.19-10.22,12.84-18.28c-2.26-7.77,3.59,1.14,3,5.76
				c-0.6,4.68,8.5-8.11,6.17-13.15c-2.27-4.91-2.45-6.37-2.09-5.59c0.71,1.51,3.22,2.97,5.01,10.05c0.65,2.55,7.8-5.59,5.45-12.42
				c-2.27-6.61-2.7-5.18-1.71-6.18c0.3-0.31,1.94,1.11,5.67,5.71c2.82,3.49,10.49-7.13,2.65-20.18
				C717.8,666.29,677.52,647.57,677.52,647.57z"/>
			<path class="st13" d="M658.39,668.33c-12.89,8.46-25.13,8.82-34.74,15.03c-9.34,6.03-29.32,29.56-50.63,45.31
				c-20.08,14.83-40.02,20.68-38.33,23.68c0.1,0.17,0.26,0.34,0.39,0.51c8.81,0.45,17.83-3.26,25.92-7.33
				c11.84-5.96,23.23-12.81,34.05-20.46c-3.39,5.11-7.55,9.71-12.3,13.6c19.27-4.84,33.68-20.41,46.9-35.24
				c-2.17,4.47-4.33,8.95-6.5,13.42c11.94-11.74,24.81-22.54,38.44-32.27c1.98,2.26,3.96,4.52,5.94,6.77
				c2.16-2.16,4.44-4.4,7.35-5.33c2.91-0.93,6.64-0.08,7.97,2.66c1.28-1.1,2.57-2.21,3.85-3.31c1.84,1.83,3.69,3.65,5.53,5.48
				c1.79-0.92,3.27-2.43,4.15-4.24c2.04,2.89,5.88,4.38,9.34,3.62c6.24,2.73,9.05,9.83,11.64,16.13c0.11,0.27,0.23,0.53,0.34,0.8
				c1.11-2.4,1.73-5.38,0.77-8.15c-2.27-6.61-2.7-5.18-1.71-6.18c0.3-0.31,1.94,1.11,5.67,5.71c2.82,3.49,10.49-7.13,2.65-20.18
				c-7.26-12.08-47.54-30.81-47.54-30.81S671.78,659.55,658.39,668.33z"/>
			<g>
				<path class="st4" d="M632.24,719.87c-0.76,0.77-22.61,18.22-32.02,22.1c-9.42,3.87-22.39,10.83-14.48,11.04
					s29.27-11.63,29.27-11.63s-12.95,12.06-5.31,9.98c7.64-2.08,21.1-13.63,21.1-13.63s-10.89,15.11-3.52,10.73
					c7.38-4.38,19.03-18.72,19.03-18.72s-6.05,14.32,0.3,8.42c6.35-5.9,16.99-18.71,16.99-18.71s-7.08,12.28-1.73,10.47
					c5.35-1.81,13.7-14.35,13.7-14.35s-5.04,11.76-0.21,8.42c4.83-3.34,10.63-16.38,10.63-16.38s-0.96,12.25,3.61,7.12
					c4.57-5.13,2.71-19.65,2.71-19.65l-4.56,5.13c0,0-1.55-4.58-3.33-3.3c-1.78,1.28-9.38,11.02-8.37,8.46s3.25-12-2.59-8.15
					c-5.85,3.86-19.55,18.21-17.27,14.37c2.28-3.84,7.32-14.58,1.22-11.48S632.24,719.87,632.24,719.87z"/>
			</g>
		</g>
	</g>
	<path class="st13" d="M701.35,613.09c0,0,13.36-10.86,17.46-27.66c4.1-16.8-3.23-30.48-0.21-44.08
		c3.02-13.6,26.09-46.93,37.23-81.38c11.13-34.45,8.74-70.53,14.56-67.44c5.82,3.08,12.91,14.38,13.64,23.66
		c0.73,9.28,2.74-11.73,5.38-10.19c2.64,1.55,10.47,21.59,8.8,31.18c-1.66,9.59,5.15-14.7,8.05-12.36
		c2.9,2.34,5.42,22.48,0.55,34.78c-4.87,12.3,5.41-13.37,8.58-11.3s1.68,24.67-6.1,35.69c-7.78,11.02,8.55-8.12,10.7-10.28
		c2.14-2.16,3.36,12.42-10.84,29.93s9.76-9.6,11.15-8.23c1.38,1.37-4.91,18.01-9.93,23.48c-5.02,5.46,8-5.32,9.81-7.54
		c1.81-2.22,0.12,11.35-8.51,20.46c-8.63,9.11-9.83,9.93-6.83,8.88c2.99-1.05,9.24-10.92,12.41-8.98s-6.49,16.05-12.5,21.73
		s10.01-7.34,11.4-7.17c1.39,0.17-3.08,12.6-10.29,18.3c-7.21,5.7,4.79-2.08,9.4-5.54c4.61-3.47-1.68,12.78-13.48,18.76
		c-11.79,5.98,5.98-1.3,10.18-3.17c4.19-1.87-4.28,13.02-15.45,16.4c-11.18,3.38,7.5,0.33,12.7-3.61
		c5.21-3.94-5.69,15.77-14.73,16.99c-9.04,1.22,2.37,2.35,6.9,0.14c4.53-2.2-5.51,9.52-11.49,9.76s-7.7-0.4-6.64,0.65
		s9.43-0.03,12.22-0.21s-3.11,7.89-10.95,8.96c-7.84,1.07-10.48-0.75-9.96,0.31c0.52,1.05,6.09,2.82,10.87,2.73
		c4.78-0.08-3.66,10.29-20.52,10.45C748.04,637.37,701.35,613.09,701.35,613.09z"/>
	<path class="st18" d="M755.83,459.97c-11.14,34.45-34.21,67.79-37.23,81.38c-3.02,13.6,4.32,27.28,0.21,44.08
		c-4.1,16.8-17.46,27.66-17.46,27.66s46.69,24.28,63.55,24.12s25.3-10.53,20.52-10.45c-4.78,0.08-10.34-1.68-10.87-2.73
		c-0.52-1.05,2.12,0.76,9.96-0.31c7.84-1.07,13.74-9.14,10.95-8.96c-2.79,0.18-11.16,1.26-12.22,0.21s0.67-0.41,6.64-0.65
		c5.98-0.24,16.02-11.96,11.49-9.76c-4.53,2.2-15.94,1.08-6.9-0.14c2.6-0.35,5.35-2.23,7.83-4.64c-6.54,2.57-13.15,4.96-19.83,7.13
		c-10.34,3.37-22.76,5.9-30.92-0.97c2.39-1.43,4.78-2.87,7.17-4.3c-3.25-2.7-6.51-5.4-9.76-8.1c0.95-1.03,2.2-1.78,3.55-2.12
		c-3.61-3.34-7.21-6.67-10.82-10.01c2.08-0.18,4.17-0.35,6.25-0.53c-3.15-5.08-6.31-10.16-9.46-15.24c3.57-2.2,7.14-4.4,10.71-6.6
		c-2.32-2.68-5.41-4.68-8.82-5.71c2.67-2.24,5.34-4.47,8.01-6.71c-3.25-3.21-6.5-6.41-9.76-9.61c3.41-3.22,6.82-6.43,10.23-9.65
		c-1.89-1.63-3.78-3.25-5.67-4.88c14.91-20.57,12.19-49.37,25.46-71.01c0.8,3.85,1.6,7.69,2.39,11.54
		c8.76-15.61,8.01-34.39,12.07-51.76c-2.23-8-7.91-16.18-12.72-18.73C764.57,389.44,766.96,425.52,755.83,459.97z"/>
	<path class="st18" d="M766.3,594.02c0.23-0.02,0.44-0.06,0.66-0.12c2.81-0.85,23.36-7.3,22.7-13.16
		c-0.71-6.29-18.14,0.32-14.85-2.01c3.29-2.33,26.33-19.1,22.83-21.56c-3.51-2.46-18.7,7.89-17.42,5.6
		c1.28-2.29,16.51-18.68,15.55-26.22s-15.94,9.1-13.89,5.53c2.04-3.56,21.14-32.87,16.87-33.55c-4.28-0.68-20.28,17.49-17.73,13.91
		c2.54-3.57,16.59-29.77,14.34-33c-2.24-3.24-13.42,10.06-13.42,10.06s10.15-10.76,7.22-23.3c-1.05-4.49-3.34-2.73-5.84,1.38
		c-1.71,2.81-6.02,1.36-5.67-1.91c0.62-5.8,0.5-9.61-1.54-6.8c-5.34,7.4-22.6,59.35-18.05,58.26c0.05-0.01,0.09-0.02,0.14-0.04
		c2.58-0.69,4.8,1.91,3.6,4.3c-4.97,9.9-10.18,21.36-5.66,17.69c7.6-6.18,11.93-12.05,11.41-10.03
		c-0.52,2.03-16.04,23.71-9.72,20.33c6.32-3.39,9.37-7.47,9.11-5.7c-0.26,1.77-17.56,24.74-13.27,23.41
		c4.29-1.33,14.67-7.81,13.89-5.53c-0.77,2.28-14.5,20.16-10.99,21.61C759.61,594.41,764.91,594.12,766.3,594.02z"/>
	<path class="st13" d="M716.76,612.18c-4.88-1.08-9.79-1.84-14.77-2.31c-4.93-0.46-20.35-1.8-29.73-3.03
		c-16.42-2.16-27.73,1.15-30.6,19.03c-2.5,15.55,13.75,19.45,25.17,24.57c11.43,5.12,23.76,19.4,34.51,26.25
		c10.74,6.85,21.65,11.31,35.9,12.58c14.26,1.27,19.34-4.4,23.94,2.3c4.6,6.7-5.81,81.58-1.77,84.52
		c4.05,2.94,16.25-38.08,18.14-37.82c1.88,0.26,9.99,34.8,14.29,34.78c4.3-0.02,5.85-39.99,5.85-39.99s37.09,28.57,39.76,24.79
		c2.67-3.78-22.07-36.17-22.07-36.17s29.34,13.39,31.19,8.81c1.86-4.58-16.22-24.48-16.22-24.48s35.5,10.54,35.47,6.24
		c-0.02-4.3-26.15-22.69-26.15-22.69s13.94-7.6,13.66-10.55c-0.28-2.96-11.05-5.59-9.72-8.55c1.33-2.96,7.49-7.57,6.4-10.79
		c-1.09-3.22-8.9-4.53-8.63-5.87c0.26-1.35,8.01-11.33,6.1-15.89s-11.03-1.83-11.03-1.83s5.85-13.47,3.42-15.34
		c-2.43-1.87-44.18,35.99-53.62,29.85c-9.44-6.13-14.34-18.48-34.02-27.25C739.98,617.86,725.75,614.18,716.76,612.18z"/>
	<path class="st3" d="M747.94,653.78c-8.08,1.49-16.6,0.4-24.06-3.02c-0.74-0.34-1.43,0.56-0.89,1.17c1.31,1.48,2.93,2.69,4.72,3.52
		c0.53,0.25,0.6,0.99,0.11,1.3c-3.06,1.98-7.17,2.03-10.81,1.25c-3.35-0.72-6.55-2.04-9.88-2.82c-0.71-0.17-1.21,0.7-0.73,1.24
		c1.35,1.52,2.71,3.04,4.06,4.55c0.41,0.46,0.13,1.18-0.48,1.26c-5.69,0.68-11.39-1.5-16.74-3.91c-0.61-0.28-1.25,0.33-1.01,0.95
		c0.01,0.02,0.01,0.04,0.02,0.05c0.29,0.76-0.67,1.38-1.24,0.8c-3.14-3.2-6.54-6.15-10.4-8.4c-2.56-1.49-5.29-2.66-7.99-3.88
		c-5.38-2.43-10.75-5.14-14.97-9.26c-9.14-8.92-9.35-23.27,2.49-29.82c1.07-0.59,2.18-1.09,3.31-1.54
		c-10.74,1.49-19.85,6.69-21.77,18.65c-2.5,15.55,13.75,19.45,25.17,24.57c5.43,2.44,11.07,6.94,16.65,11.74
		c0.06,0.05,0.13,0.1,0.21,0.13c1.72,0.66,3.39,1.43,5.01,2.37l-0.43-0.41c7.2,5.92,15.21,10.84,23.77,14.52
		c0.73,0.32,1.38-0.57,0.87-1.19c-0.21-0.25-0.41-0.51-0.61-0.77c-0.45-0.6,0.13-1.41,0.84-1.17c4.9,1.66,10.21,2.1,15.32,1.26
		c0.52-0.08,0.79-0.68,0.52-1.13c-0.57-0.94-1.2-1.84-1.88-2.71c-0.42-0.53,0.01-1.29,0.67-1.2c5.79,0.73,11.8-0.29,17.01-2.92
		c0.47-0.24,0.55-0.89,0.16-1.23c-1.52-1.33-3.19-2.48-4.98-3.42c-0.61-0.32-0.47-1.24,0.21-1.38c3.68-0.8,7.09-2.86,9.47-5.79
		c0.74-0.91,1.34-2.39,0.44-3.15C749.5,653.51,748.66,653.64,747.94,653.78z"/>
	<path class="st3" d="M857.72,610.89c-1.1-0.85-28.13,16.29-38.71,23.97c4.6-1.7,9.18-3.44,10.07-2.91
		c2.2,1.3-15.55,15.12-19.32,18.64c-3.78,3.52,28.51-11.48,32.77-7.27c4.25,4.21-34.17,17.79-36.21,18.97
		c-2.04,1.18,32.24-5.39,36.21,0.29c3.97,5.67-41.41,11.13-43.89,11s35.88,16.04,37.81,21.43c1.93,5.39-42.42-10.32-45.2-11.62
		c-2.78-1.3,29.66,23.44,32.03,29.86c2.37,6.41-34.3-17.87-39.28-20.77c-4.98-2.9,18.85,29.42,19.02,33.94
		c0.17,4.53-19.7-24.74-23.08-29.25c-3.38-4.51,9.61,30.94,7.88,35.33c-1.73,4.39-11.64-28.59-13.84-31.06
		c-2.2-2.47-1.11,24.58-3.38,37.14c-2.27,12.57-1.66-52.89-5.18-56.08s-10.38-1.84-15.61,2.56c-2.68,2.25-6.5,3.59-9.61,4.37
		c12.04,0.34,16.74-4.08,21.01,2.13c4.6,6.7-2.15,52.44,1.9,55.38c4.05,2.94,12.59-8.94,14.47-8.68c1.88,0.26,4.35,9.12,8.65,9.1
		c4.3-0.02,11.49-14.31,11.49-14.31s15.89,6.1,18.56,2.32c2.67-3.78-0.88-13.71-0.88-13.71s16.96,2.87,18.81-1.71
		c1.86-4.58-3.84-13.96-3.84-13.96s16.4-0.89,16.38-5.19c-0.02-4.3-7.05-11.26-7.05-11.26s26.43-2.73,26.15-5.69
		c-0.29-2.96-23.54-10.46-22.21-13.42c1.33-2.96,25.33-8.7,24.24-11.92c-1.09-3.22-26.74-3.4-26.48-4.74
		c0.26-1.35,25.34-11.98,23.43-16.54c-1.9-4.56-28.36-1.18-28.36-1.18S860.15,612.76,857.72,610.89z"/>
	<g>
		<path class="st11" d="M643.32,631.1c0,0-9.3,3.43-15.35,9.54c-6.05,6.11,2.87,2.45,8.25,1.71c6.73-0.92,11.89-0.06,14.59,0.19
			c2.7,0.26,9.01-8.29,4.94-11.78C651.68,627.28,643.32,631.1,643.32,631.1z"/>
		<path class="st7" d="M643.32,631.1c0,0-9.3,3.43-15.35,9.54c-1.99,2-2.34,2.95-1.75,3.29c2.15-1.81,5.94-4.4,11.3-5.89
			c7.15-1.99,15.36-2.14,18.83-6.62c-0.17-0.23-0.36-0.46-0.6-0.66C651.68,627.28,643.32,631.1,643.32,631.1z"/>
	</g>
	<circle class="st0" cx="659.9" cy="614.79" r="3.01"/>
	<path class="st11" d="M743.92,683.29c0,0,11.98,0.88,13,4.16c1.03,3.28-5.18,6.89-5.18,6.89s2.06-0.77,5.56,0.53
		c3.5,1.29,6.83,4.58,5.29,3.92c-1.54-0.66-5.38-2.1-7.87-1.96c-2.49,0.15-3.3,0.61-5.43,2.74c-2.13,2.13-4.38,7.85-4.69,6.7
		c-0.32-1.15,3.35-6.87,2.03-6.62c-1.32,0.24-7.92,4.3-6.87,2.32c1.05-1.98,8.12-3.81,6.43-4.13c-1.69-0.32-7.6-0.22-5.99-1.15
		c1.61-0.93,5.72-0.59,7.48-1.86c1.76-1.27,6.14-4.86,6.23-6.04s-8.53-0.42-10.39-0.81c-1.86-0.39,3.1-1.1,2.05-1.96
		c-1.05-0.85-2.98-1.08-2.98-1.08s2.57-0.32,2.13-0.71C744.29,683.86,743.92,683.29,743.92,683.29z"/>
	<path class="st11" d="M760.06,658.73c0,0,12.03,5.98,12.98,9.28s-5.34,6.77-5.34,6.77s2.5,0.1,5.97,1.47
		c3.47,1.37,6.31,3.92,4.78,3.22c-1.53-0.69-5.33-2.22-7.83-2.13c-2.5,0.09-3.31,0.54-5.49,2.61c-2.17,2.08-4.55,7.75-4.85,6.59
		c-0.29-1.16,3.5-6.79,2.18-6.58c-1.33,0.21-8.02,4.12-6.92,2.17c1.1-1.96,8.2-3.63,6.52-3.99c-1.68-0.36-7.6-0.39-5.96-1.28
		c1.63-0.89,5.73-0.46,7.52-1.69c1.79-1.23,6.25-4.72,6.37-5.89c0.12-1.17-8.59-5.44-10.44-5.87c-1.85-0.43,2.3-0.39,1.27-1.27
		c-1.03-0.88-2.13-1.78-2.13-1.78s2.57-0.26,2.14-0.66C760.42,659.3,760.06,658.73,760.06,658.73z"/>
</g>
</svg>
